<?xml version="1.0" standalone="no"?>
<!DOCTYPE svg PUBLIC "-//W3C//DTD SVG 1.1//EN" "http://www.w3.org/Graphics/SVG/1.1/DTD/svg11.dtd" >
<svg xmlns="http://www.w3.org/2000/svg" xmlns:xlink="http://www.w3.org/1999/xlink" version="1.1">
<metadata>
Created by FontForge 20170731 at Wed Oct  8 21:55:45 2014
 By Aleksey,,,
Copyright (c) 2014 by Daniel Hernndez. All rights reserved.
</metadata>
<defs>
<font id="AndesRoundedW01-UltraLight" horiz-adv-x="692" >
  <font-face 
    font-family="AndesRoundedW01-UltraLight"
    font-weight="250"
    font-stretch="normal"
    units-per-em="1000"
    panose-1="2 0 0 0 0 0 0 0 0 0"
    ascent="800"
    descent="-200"
    x-height="482"
    cap-height="700"
    bbox="-106.778 -254 996 928"
    underline-thickness="50"
    underline-position="-225"
    unicode-range="U+0020-2122"
  />
<missing-glyph horiz-adv-x="414" 
 />
    <glyph glyph-name=".notdef" horiz-adv-x="414" 
 />
    <glyph glyph-name=".null" horiz-adv-x="0" 
 />
    <glyph glyph-name="nonmarkingreturn" horiz-adv-x="333" 
 />
    <glyph glyph-name="space" unicode=" " horiz-adv-x="256" 
 />
    <glyph glyph-name="exclam" unicode="!" horiz-adv-x="218" 
d="M99 700q0 6 6 6h8q6 0 6 -6l-2 -520q0 -6 -6 -6h-4q-6 0 -6 6zM109 46q11 0 18.5 -7.5t7.5 -18.5t-7.5 -18.5t-18.5 -7.5t-18.5 7.5t-7.5 18.5t7.5 18.5t18.5 7.5z" />
    <glyph glyph-name="quotedbl" unicode="&#x22;" horiz-adv-x="248" 
d="M153 700q0 6 6 6h10q6 0 6 -6l-2 -114q0 -6 -6 -6h-6q-6 0 -6 6zM73 700q0 6 6 6h10q6 0 6 -6l-2 -114q0 -6 -6 -6h-6q-6 0 -6 6z" />
    <glyph glyph-name="numbersign" unicode="#" horiz-adv-x="612" 
d="M405 346h-162l-36 -162h162zM225 346h-118q-6 0 -5 5l2 8q2 5 7 5h118l27 120q1 6 7 6h6q6 0 5 -6l-27 -120h162l27 120q1 6 7 6h6q6 0 5 -6l-27 -120h122q6 0 5 -5l-2 -8q-2 -5 -7 -5h-122l-36 -162h118q6 0 5 -5l-2 -8q-2 -5 -7 -5h-118l-27 -120q-2 -6 -7 -6h-6
q-7 0 -5 6l27 120h-162l-27 -120q-2 -6 -7 -6h-6q-7 0 -5 6l27 120h-122q-7 0 -5 5l2 8q2 5 7 5h122z" />
    <glyph glyph-name="dollar" unicode="$" horiz-adv-x="572" 
d="M281 5q-59 2 -100.5 17.5t-68.5 35t-41.5 38t-18.5 26.5q-2 4 2 7l7 5q4 2 6 -1q4 -8 19 -26.5t42 -37t68.5 -33t98.5 -14.5q97 0 152 43.5t55 116.5q0 47 -19 75.5t-49.5 45t-70 24.5t-81 15t-81 16t-70 27t-49.5 49t-19 81q0 35 14 66.5t41.5 54.5t68 37t94.5 14v103
q0 7 7 7h4q7 0 7 -7v-103q55 -2 93 -18t62 -35.5t35.5 -38t14.5 -25.5q1 -4 -2 -6l-6 -3q-5 -3 -8 2q-5 8 -17 25.5t-36 35.5t-61 32t-92 14q-51 0 -89 -13t-62.5 -34.5t-36.5 -49.5t-12 -57q0 -47 19 -75t49.5 -44.5t70 -24.5t81 -15.5t81 -16.5t70 -27.5t49.5 -49.5
t19 -81q0 -38 -15 -70t-43.5 -55.5t-69.5 -37.5t-94 -14v-119q0 -7 -7 -7h-4q-7 0 -7 7v119z" />
    <glyph glyph-name="percent" unicode="%" horiz-adv-x="541" 
d="M143 424q-42 0 -68.5 32t-26.5 107t26 107t69 32t69 -32t26 -107t-26.5 -107t-68.5 -32zM143 439q42 0 59.5 33.5t17.5 90.5t-17.5 90.5t-59.5 33.5t-59.5 -33.5t-17.5 -90.5t17.5 -90.5t59.5 -33.5zM398 -2q-42 0 -68.5 32t-26.5 107t26 107t69 32t69 -32t26 -107
t-26.5 -107t-68.5 -32zM398 13q42 0 59.5 33.5t17.5 90.5t-17.5 90.5t-59.5 33.5t-59.5 -33.5t-17.5 -90.5t17.5 -90.5t59.5 -33.5zM175 6q-2 -6 -8 -6h-7q-6 0 -4 6l208 688q1 6 8 6h7q6 0 4 -6z" />
    <glyph glyph-name="ampersand" unicode="&#x26;" horiz-adv-x="643" 
d="M532 -98q-4 0 -5 2t-1 4q0 31 -3.5 58.5t-8.5 47.5q-5 24 -11 44q-17 -21 -43 -37q-23 -14 -59.5 -25t-90.5 -11t-98.5 18t-76 50t-48.5 77.5t-17 100.5q0 64 20 106t45 68q28 30 65 46q-11 13 -20 31q-8 15 -14 37t-6 50q0 34 11.5 64t33 52t53 34.5t72.5 12.5
q49 0 81 -15t51.5 -38t27.5 -50t8 -51q0 -36 -5.5 -58t-8.5 -31q-2 -7 -9 -7h-6q-6 0 -4 6q4 11 9.5 35.5t5.5 54.5q0 21 -7.5 45.5t-25 44.5t-46 33.5t-71.5 13.5q-35 0 -63.5 -11.5t-48 -31t-30 -46t-10.5 -57.5q0 -42 17.5 -76.5t46 -67t64 -65.5t72.5 -72t72 -86.5
t61 -109.5q14 22 25 55q10 28 18 69t8 97q0 2 1 4t5 2h6q4 0 5 -2t1 -4q0 -60 -10 -105t-21 -75q-14 -35 -31 -60q7 -22 13 -48q5 -23 9 -52.5t4 -64.5q0 -2 -1 -4t-5 -2h-6zM310 2q51 0 86 11t58 25q26 16 43 37q-23 61 -58 110t-74.5 91t-81 81.5t-75.5 81.5
q-34 -17 -60 -45q-23 -24 -41.5 -64t-18.5 -99q0 -55 18.5 -97.5t49.5 -72t71 -44.5t83 -15z" />
    <glyph glyph-name="quotesingle" unicode="'" horiz-adv-x="168" 
d="M73 700q0 6 6 6h10q6 0 6 -6l-2 -114q0 -6 -6 -6h-6q-6 0 -6 6z" />
    <glyph glyph-name="parenleft" unicode="(" horiz-adv-x="255" 
d="M77 241q0 -108 19.5 -191t44.5 -142t48 -92.5t30 -42.5q5 -5 0 -8l-7 -6q-4 -2 -7 1q-8 9 -31.5 44.5t-49 96.5t-45.5 146t-20 194q0 111 20.5 197t46 146.5t49.5 95t30 42.5q3 3 7 1l7 -6q3 -4 1 -6q-6 -8 -29.5 -41.5t-48.5 -92.5t-45 -143.5t-20 -192.5z" />
    <glyph glyph-name="parenright" unicode=")" horiz-adv-x="255" 
d="M196 241q0 -109 -20 -194t-45.5 -146t-49.5 -96.5t-31 -44.5q-3 -3 -7 -1l-7 6q-5 3 0 8q7 9 30 42.5t48 92.5t44.5 142t19.5 191t-20 192.5t-45 143.5t-48.5 92.5t-29.5 41.5q-3 3 1 6l7 6q4 2 7 -1q6 -8 30 -42.5t49.5 -95t46 -146.5t20.5 -197z" />
    <glyph glyph-name="asterisk" unicode="*" horiz-adv-x="423" 
d="M194 597l-127 20q-6 1 -6 6l2 9q0 2 2 3.5t5 0.5l125 -22l-51 114q-2 4 2 6l10 5q4 2 6 -3l49 -118l83 108q4 6 9 1l7 -6q4 -5 0 -9l-88 -102l134 -20q5 -1 5 -7l-1 -6q-2 -6 -7 -5l-132 22l56 -120q2 -4 -2 -6l-11 -5q-4 -2 -6 3l-52 121l-81 -102q-4 -6 -9 -1l-6 5
q-5 5 0 10z" />
    <glyph glyph-name="plus" unicode="+" horiz-adv-x="448" 
d="M234 266v-158q0 -7 -6 -7h-8q-6 0 -6 7v158h-143q-7 0 -7 6v6q0 6 7 6h143v159q0 7 6 7h8q6 0 6 -7v-159h143q7 0 7 -6v-6q0 -6 -7 -6h-143z" />
    <glyph glyph-name="comma" unicode="," horiz-adv-x="197" 
d="M71 20q0 11 7.5 18.5t18.5 7.5q14 0 21.5 -10.5t7.5 -25.5q0 -20 -5.5 -33.5t-12.5 -22t-14.5 -12.5t-11.5 -5t-7 4l-4 7q-3 5 2 7q6 2 15 11t9 28q-10 0 -18 7.5t-8 18.5z" />
    <glyph glyph-name="hyphen" unicode="-" horiz-adv-x="401" 
d="M316 284q7 0 7 -8v-4q0 -6 -6 -6h-233q-6 0 -6 6v4q0 8 7 8h231z" />
    <glyph glyph-name="period" unicode="." horiz-adv-x="194" 
d="M71 20q0 11 7.5 18.5t18.5 7.5t18.5 -7.5t7.5 -18.5t-7.5 -18.5t-18.5 -7.5t-18.5 7.5t-7.5 18.5z" />
    <glyph glyph-name="slash" unicode="/" horiz-adv-x="374" 
d="M42 -224q-6 0 -4 6l279 918q1 6 8 6h8q6 0 4 -6l-279 -918q-2 -6 -8 -6h-8z" />
    <glyph glyph-name="zero" unicode="0" horiz-adv-x="600" 
d="M300 -6q-118 0 -174 87.5t-56 267.5q0 357 230 357t230 -357q0 -180 -56 -267.5t-174 -87.5zM300 12q109 0 159.5 83t50.5 254t-50.5 255t-159.5 84t-159.5 -84t-50.5 -255t50.5 -254t159.5 -83z" />
    <glyph glyph-name="one" unicode="1" horiz-adv-x="344" 
d="M244 7q0 -7 -7 -7h-6q-7 0 -7 7v633q-7 -21 -22.5 -45t-38.5 -45t-52 -35.5t-63 -15.5q-2 0 -4 0.5t-3 5.5l-1 6q-1 6 4 6q35 1 66 17t54.5 41t38.5 56t20 62q0 2 1.5 4.5t5.5 2.5h7q7 0 7 -7v-686z" />
    <glyph glyph-name="two" unicode="2" horiz-adv-x="535" 
d="M72 0q-7 0 -7 7v41q0 64 28 104.5t70 69.5t91 52t91 52t70 70t28 106q0 88 -48.5 137t-127.5 49q-53 0 -87 -17.5t-54 -40.5t-29 -46t-11 -33q-2 -7 -7 -5l-8 3q-6 2 -5 7q3 10 12 35t31.5 50.5t60 45t97.5 19.5q48 0 85 -15.5t61.5 -43t37 -65t12.5 -80.5
q0 -68 -28 -111.5t-70 -73.5t-91 -52.5t-91 -50.5t-70 -66.5t-28 -99.5v-30h381q7 0 7 -7v-4q0 -7 -7 -7h-394z" />
    <glyph glyph-name="three" unicode="3" horiz-adv-x="553" 
d="M284 369q27 0 55.5 10.5t52 31t39 51t15.5 71.5q0 32 -11.5 60t-34 49t-55.5 33.5t-75 12.5q-43 0 -73.5 -12t-50 -28t-30 -32t-13.5 -23q-2 -5 -7 -2l-7 4q-5 3 -3 8q3 7 14 24.5t32.5 34.5t55 30.5t82.5 13.5q51 0 88 -15t61 -39.5t35.5 -55.5t11.5 -63
q0 -53 -20.5 -86t-45.5 -53q-29 -23 -66 -34q43 -10 76 -32q29 -19 52.5 -53.5t23.5 -91.5q0 -97 -59.5 -143t-160.5 -46q-56 0 -94.5 15.5t-63 35.5t-36.5 39t-16 27q-3 5 3 8l6 4q5 4 7 -1q3 -6 15.5 -24t35.5 -37t58.5 -34t84.5 -15q94 0 147 43t53 128q0 45 -18.5 76.5
t-46 52t-59 30t-58.5 9.5h-41q-6 0 -6 6v6q0 6 6 6h41z" />
    <glyph glyph-name="four" unicode="4" horiz-adv-x="549" 
d="M411 7q0 -7 -7 -7h-6q-7 0 -7 7v175h-344q-8 0 -8 7v5q0 3 0.5 5.5t2.5 6.5l247 488q3 6 9 6h10q6 0 3 -6l-250 -494h330v183q0 7 7 7h6q7 0 7 -7v-183h91q8 0 8 -8v-3q0 -7 -8 -7h-91v-175z" />
    <glyph glyph-name="five" unicode="5" horiz-adv-x="548" 
d="M109 384q16 11 39 21q20 8 49 15t70 7q49 0 89.5 -16t69.5 -44t45 -66t16 -82t-12 -84.5t-38.5 -72t-68.5 -50t-101 -18.5q-50 0 -86 12t-60 27.5t-37 30.5t-17 21q-2 3 1 6l8 8q3 3 5 0q4 -6 16 -20.5t34.5 -29t56 -26t79.5 -11.5q94 0 147 54t53 153q0 40 -14 74.5
t-40.5 60t-63.5 40.5t-82 15q-33 0 -59 -5t-45.5 -12t-32 -14t-17.5 -11q-5 -3 -10 -3h-7q-7 0 -7 7v322q0 7 7 7h364q7 0 7 -7v-4q0 -7 -7 -7h-351v-298z" />
    <glyph glyph-name="six" unicode="6" horiz-adv-x="580" 
d="M305 -6q-50 0 -93.5 18t-75 56.5t-49.5 99t-18 146.5q0 104 17.5 178t50.5 121.5t80 70t107 22.5q43 0 73 -10t49 -22t28.5 -23.5t11.5 -14.5q3 -4 0 -7l-8 -8q-3 -3 -6 1q-4 6 -14 17t-28 22t-44 19t-62 8q-53 0 -96.5 -20.5t-74.5 -65t-47.5 -114.5t-16.5 -170
q22 30 53 54q26 20 65.5 37.5t92.5 17.5q42 0 82.5 -11.5t71.5 -37t50 -65.5t19 -97t-17 -98.5t-46.5 -69t-69 -41t-85.5 -13.5zM89 294q1 -73 18 -126.5t46 -88t68 -51t84 -16.5q91 0 144.5 53.5t53.5 150.5q0 48 -15 84t-41.5 60.5t-64 36.5t-82.5 12q-53 0 -92.5 -18
t-65.5 -40q-31 -26 -53 -57z" />
    <glyph glyph-name="seven" unicode="7" horiz-adv-x="493" 
d="M40 692q0 8 7 8h407q7 0 7 -8v-10q0 -47 -20.5 -92.5t-51.5 -93.5t-66.5 -100.5t-66.5 -112t-51.5 -128t-20.5 -148.5q0 -7 -6 -7h-8q-6 0 -6 7q0 80 20.5 148.5t51.5 128.5t66.5 112.5t66.5 100.5t51.5 93.5t20.5 91.5h-395q-6 0 -6 6v4z" />
    <glyph glyph-name="eight" unicode="8" horiz-adv-x="584" 
d="M201 378q-2 0 -18.5 7t-35 24t-34 46.5t-15.5 76.5q0 38 13.5 70t38 55t60 36t80.5 13q52 0 90 -16.5t62.5 -42.5t36 -60t11.5 -68q0 -51 -16.5 -84.5t-36.5 -53.5q-24 -24 -53 -37q73 -24 104 -67.5t31 -95.5q0 -87 -56 -137t-164 -50q-49 0 -92 12t-74.5 36t-50 61.5
t-18.5 88.5t20 86t45 57t47 32t25 11zM224 369q-39 -14 -70 -38q-26 -20 -48 -54t-22 -85q0 -85 58.5 -132.5t156.5 -47.5q97 0 148.5 43t51.5 126q0 53 -35 94t-108 60zM360 352q30 12 55 34q20 19 37.5 50.5t17.5 82.5q0 33 -11.5 63.5t-34 54t-56 37t-78.5 13.5
q-41 0 -72.5 -12.5t-54 -33.5t-34 -49t-11.5 -60q0 -35 10 -60.5t26.5 -43.5t37.5 -28.5t42 -15.5z" />
    <glyph glyph-name="nine" unicode="9" horiz-adv-x="571" 
d="M268 706q115 0 174 -89t59 -251q0 -102 -17 -173t-49 -115t-78 -64t-104 -20q-36 0 -64.5 9t-49.5 20.5t-34.5 22.5t-17.5 16q-4 3 0 7l5 6q3 4 6 1q5 -5 17.5 -15.5t32.5 -21t46.5 -19t58.5 -8.5q120 0 174 86.5t54 260.5q-21 -27 -52 -48q-26 -18 -66 -32.5t-95 -14.5
q-45 0 -82.5 12t-65.5 38t-43.5 67t-15.5 99q0 53 15.5 95t43 71t65.5 44.5t83 15.5zM481 381q0 70 -14 127t-41 97t-66.5 61.5t-91.5 21.5q-40 0 -74.5 -14t-59.5 -41t-39 -65.5t-14 -87.5q0 -101 48 -149.5t139 -48.5q55 0 95 15t66 34q31 22 52 50z" />
    <glyph glyph-name="colon" unicode=":" horiz-adv-x="208" 
d="M78 20q0 11 7.5 18.5t18.5 7.5t18.5 -7.5t7.5 -18.5t-7.5 -18.5t-18.5 -7.5t-18.5 7.5t-7.5 18.5zM78 438q0 11 7.5 18.5t18.5 7.5t18.5 -7.5t7.5 -18.5t-7.5 -18.5t-18.5 -7.5t-18.5 7.5t-7.5 18.5z" />
    <glyph glyph-name="semicolon" unicode=";" horiz-adv-x="215" 
d="M81 20q0 11 7.5 18.5t18.5 7.5q14 0 21.5 -10.5t7.5 -25.5q0 -20 -5.5 -33.5t-12.5 -22t-14.5 -12.5t-11.5 -5t-7 4l-4 7q-3 5 2 7q6 2 15 11t9 28q-10 0 -18 7.5t-8 18.5zM81 438q0 11 7.5 18.5t18.5 7.5t18.5 -7.5t7.5 -18.5t-7.5 -18.5t-18.5 -7.5t-18.5 7.5
t-7.5 18.5z" />
    <glyph glyph-name="less" unicode="&#x3c;" horiz-adv-x="404" 
d="M328 481q6 4 6 -2v-8q0 -6 -6 -10l-263 -186l263 -186q6 -4 6 -10v-8q0 -6 -6 -2l-276 194q-4 3 -4 8v8q0 5 4 8z" />
    <glyph glyph-name="equal" unicode="=" horiz-adv-x="514" 
d="M425 374q7 0 7 -6v-6q0 -6 -7 -6h-336q-7 0 -7 6v6q0 6 7 6h336zM425 194q7 0 7 -6v-6q0 -6 -7 -6h-336q-7 0 -7 6v6q0 6 7 6h336z" />
    <glyph glyph-name="greater" unicode="&#x3e;" horiz-adv-x="404" 
d="M352 287q4 -3 4 -8v-8q0 -5 -4 -8l-276 -194q-6 -4 -6 2v8q0 6 6 10l263 186l-263 186q-6 4 -6 10v8q0 6 6 2z" />
    <glyph glyph-name="question" unicode="?" horiz-adv-x="426" 
d="M185 46q11 0 18.5 -7.5t7.5 -18.5t-7.5 -18.5t-18.5 -7.5t-18.5 7.5t-7.5 18.5t7.5 18.5t18.5 7.5zM52 545q-5 1 -5 7q0 33 12.5 61t34.5 49t51.5 32.5t64.5 11.5q44 0 75.5 -14t52 -36.5t30 -51t9.5 -57.5q0 -45 -13.5 -75t-34 -52.5t-44.5 -42.5t-44 -45.5t-33.5 -61.5
t-13.5 -90q0 -2 -1 -4t-5 -2h-6q-4 0 -5 2t-1 4q1 58 14.5 96t34 64t44 45t43.5 40.5t33.5 49.5t13.5 72q0 29 -9.5 54.5t-28 45t-46.5 31t-65 11.5q-32 0 -58.5 -10.5t-45.5 -29.5t-30 -44.5t-11 -55.5q0 -2 -1 -4t-5 -1z" />
    <glyph glyph-name="at" unicode="@" horiz-adv-x="817" 
d="M765 353q0 -71 -19.5 -127.5t-50 -95.5t-67 -60t-69.5 -21q-51 0 -51 45q0 14 5.5 33.5t9.5 28.5q-4 -7 -15 -24t-29.5 -34t-45 -30.5t-60.5 -13.5q-28 0 -51 7t-39.5 24t-26 45t-9.5 69q0 48 16 94t44.5 82.5t67 59t84.5 22.5q35 0 59 -10.5t39 -23.5q17 -15 27 -34
l12 45q1 6 8 6h7q2 0 5 -3v-3q-1 -3 -8 -27t-17 -58.5t-21 -75t-20.5 -76.5t-16.5 -63.5t-7 -35.5q-2 -32 35 -32q31 0 64.5 20t60.5 57.5t44.5 90.5t17.5 119q0 55 -20 102.5t-56.5 82t-87 54t-110.5 19.5q-87 0 -159 -33.5t-123.5 -91.5t-80.5 -136.5t-29 -168.5
q0 -73 20.5 -129t58 -93.5t90 -56.5t115.5 -19q74 0 128.5 15t91 33.5t55.5 35.5t23 21q3 3 5 0l5 -7q3 -4 0 -7q-6 -7 -28 -24.5t-60.5 -36t-93 -33t-126.5 -14.5q-64 0 -119 19t-95.5 57.5t-64 98t-23.5 140.5q0 102 31.5 184.5t87 141t130.5 90t161 31.5q64 0 117.5 -20
t92 -56.5t60 -87t21.5 -111.5zM578 368q-9 20 -25 36q-14 14 -36.5 25t-57.5 11q-42 0 -77.5 -20.5t-61.5 -54.5t-40.5 -77t-14.5 -89q0 -70 30 -99t78 -29q39 0 68 17t49 40.5t31.5 48t15.5 39.5z" />
    <glyph glyph-name="A" unicode="A" horiz-adv-x="628" 
d="M486 230h-344l-86 -225q-2 -5 -7 -5h-9q-7 0 -4 5l264 687q3 8 8 8h12q3 0 5 -3t3 -5l264 -687q2 -5 -4 -5h-9q-5 0 -7 5zM149 248h330l-165 432z" />
    <glyph glyph-name="B" unicode="B" horiz-adv-x="612" 
d="M107 0q-7 0 -7 7v686q0 7 7 7h206q95 0 148 -43t53 -131q0 -51 -15 -83.5t-35.5 -50.5t-41 -24.5t-31.5 -6.5v-2q17 0 45 -6.5t54.5 -25.5t45.5 -53.5t19 -89.5q0 -53 -21.5 -88.5t-56 -56.5t-78 -30t-88.5 -9h-204zM311 18q37 0 76.5 6.5t72.5 24.5t54 50.5t21 84.5
q0 46 -15 78t-40.5 51.5t-60.5 28.5t-74 9h-225v-333h191zM345 369q44 0 73 12.5t46 34t23.5 50t6.5 60.5q0 69 -43 112.5t-140 43.5h-191v-313h225z" />
    <glyph glyph-name="C" unicode="C" horiz-adv-x="624" 
d="M570 109q3 -4 0 -8q-2 -3 -16.5 -20t-41.5 -36.5t-67 -35t-93 -15.5q-58 0 -110 18t-91 59.5t-62 109t-23 166.5q0 98 22 166.5t60 111t88 62t106 19.5q49 0 85 -12.5t61 -31.5t40.5 -42t24 -43t11.5 -34.5t4 -17.5q1 -6 -3 -7l-8 -2q-7 -1 -8 5q-2 12 -11 40t-31.5 56
t-62 49.5t-102.5 21.5q-50 0 -96 -17.5t-81.5 -57.5t-57 -105.5t-21.5 -160.5q0 -98 23 -162.5t60.5 -102.5t85 -54t97.5 -16t87.5 15t63 33.5t39 35t16.5 20.5q2 4 6 0z" />
    <glyph glyph-name="D" unicode="D" horiz-adv-x="653" 
d="M107 0q-7 0 -7 7v686q0 7 7 7h153q70 0 130 -21t104 -64.5t68.5 -110t24.5 -158.5q0 -172 -75.5 -259t-211.5 -87h-193zM300 18q61 0 110.5 19.5t84.5 60t53.5 102.5t18.5 146q0 92 -25 156t-67 104t-98 58t-117 18h-140v-664h180z" />
    <glyph glyph-name="E" unicode="E" horiz-adv-x="555" 
d="M107 0q-7 0 -7 7v686q0 7 7 7h376q7 0 7 -7v-4q0 -7 -7 -7h-363v-323h323q7 0 7 -7v-4q0 -7 -7 -7h-323v-323h363q7 0 7 -7v-4q0 -7 -7 -7h-376z" />
    <glyph glyph-name="F" unicode="F" horiz-adv-x="536" 
d="M120 7q0 -7 -7 -7h-6q-7 0 -7 7v686q0 7 7 7h376q7 0 7 -7v-4q0 -7 -7 -7h-363v-323h323q7 0 7 -7v-4q0 -7 -7 -7h-323v-334z" />
    <glyph glyph-name="G" unicode="G" horiz-adv-x="642" 
d="M578 261q0 -131 -58.5 -199t-177.5 -68q-54 0 -103.5 18t-88 59.5t-61.5 109t-23 166.5q0 98 22 166.5t60 111t88 62t106 19.5q40 0 77 -10.5t67 -32.5t51.5 -56.5t30.5 -81.5q1 -6 -3 -7l-8 -2q-7 -1 -8 6q-20 85 -73 125.5t-134 40.5q-50 0 -96 -17.5t-81.5 -57.5
t-57 -105.5t-21.5 -160.5q0 -98 23 -162.5t60 -102.5t82.5 -54t90.5 -16q109 0 162.5 64t53.5 185v56h-196q-7 0 -7 7v4q0 7 7 7h209q7 0 7 -7v-67z" />
    <glyph glyph-name="H" unicode="H" horiz-adv-x="670" 
d="M570 7q0 -7 -7 -7h-6q-7 0 -7 7v334h-430v-334q0 -7 -7 -7h-6q-7 0 -7 7v686q0 7 7 7h6q7 0 7 -7v-334h430v334q0 7 7 7h6q7 0 7 -7v-686z" />
    <glyph glyph-name="I" unicode="I" horiz-adv-x="220" 
d="M120 7q0 -7 -7 -7h-6q-7 0 -7 7v686q0 7 7 7h6q7 0 7 -7v-686z" />
    <glyph glyph-name="J" unicode="J" horiz-adv-x="434" 
d="M318 693q0 7 7 7h6q7 0 7 -7v-523q0 -48 -12 -81.5t-33.5 -54.5t-51.5 -30.5t-65 -9.5q-38 0 -67 11t-48.5 24.5t-30 26t-12.5 14.5q-4 3 0 7l8 8q3 3 6 -1q2 -3 12.5 -14.5t28.5 -24t44 -23t59 -10.5q66 0 104 36t38 118v527z" />
    <glyph glyph-name="K" unicode="K" horiz-adv-x="660" 
d="M310 346q33 0 71.5 19.5t70.5 61.5t53.5 107.5t21.5 158.5q0 7 7 7h6q7 0 7 -7q0 -85 -17.5 -147.5t-45 -105.5t-61 -68t-64.5 -36q29 -8 52.5 -34.5t44.5 -62t40.5 -74.5t39.5 -71.5t42 -54t49 -21.5h18q7 0 7 -7v-4q0 -7 -10 -7h-15q-36 0 -62.5 24.5t-48.5 60.5
t-41.5 79t-43 79t-52.5 60.5t-69 24.5h-190v-321q0 -7 -7 -7h-6q-7 0 -7 7v686q0 7 7 7h6q7 0 7 -7v-347h190z" />
    <glyph glyph-name="L" unicode="L" horiz-adv-x="523" 
d="M120 18h383q7 0 7 -7v-4q0 -7 -7 -7h-396q-7 0 -7 7v686q0 7 7 7h6q7 0 7 -7v-675z" />
    <glyph glyph-name="M" unicode="M" horiz-adv-x="800" 
d="M100 693q0 7 7 7h19q6 0 9 -7l264 -562h2l264 562q3 7 9 7h19q7 0 7 -7v-686q0 -7 -7 -7h-6q-7 0 -7 7v673l-267 -566q-4 -9 -13 -9t-13 9l-267 566v-673q0 -7 -7 -7h-6q-7 0 -7 7v686z" />
    <glyph glyph-name="N" unicode="N" horiz-adv-x="670" 
d="M544 0q-5 0 -10 8l-414 674v-675q0 -7 -7 -7h-6q-7 0 -7 7v686q0 7 7 7h19q5 0 9 -7l415 -675v675q0 7 7 7h6q7 0 7 -7v-686q0 -7 -7 -7h-19z" />
    <glyph glyph-name="O" unicode="O" 
d="M346 -6q-52 0 -102.5 18t-90 59.5t-63.5 109.5t-24 168t24 168t63.5 110t90 60.5t102.5 18.5t102.5 -18.5t90 -60.5t63.5 -110t24 -168t-24 -168t-63.5 -109.5t-90 -59.5t-102.5 -18zM346 12q49 0 95.5 17.5t83 57t59 104t22.5 158.5t-22.5 158.5t-59 104.5t-83 58
t-95.5 18t-95.5 -18t-83 -58t-59 -104.5t-22.5 -158.5t22.5 -158.5t59 -104t83 -57t95.5 -17.5z" />
    <glyph glyph-name="P" unicode="P" horiz-adv-x="567" 
d="M107 0q-7 0 -7 7v686q0 7 7 7h193q106 0 164 -51.5t58 -154.5t-58 -151.5t-164 -48.5h-180v-287q0 -7 -7 -7h-6zM300 312q105 0 153.5 48t48.5 134t-48.5 137t-153.5 51h-180v-370h180z" />
    <glyph glyph-name="Q" unicode="Q" 
d="M553 -201q0 -5 -4 -6t-6 -1q-74 4 -127.5 57.5t-78.5 144.5q-51 1 -99.5 20t-87 61t-61.5 109t-23 165q0 100 24 168t63.5 110t90 60.5t102.5 18.5t102.5 -18.5t90 -60.5t63.5 -110t24 -168q0 -98 -23 -164.5t-61 -108.5t-86.5 -61t-99.5 -21q27 -93 78.5 -137.5
t111.5 -46.5q2 0 4.5 -1t2.5 -6v-4zM346 12q49 0 95.5 17.5t83 57t59 104t22.5 158.5t-22.5 158.5t-59 104.5t-83 58t-95.5 18t-95.5 -18t-83 -58t-59 -104.5t-22.5 -158.5t22.5 -158.5t59 -104t83 -57t95.5 -17.5z" />
    <glyph glyph-name="R" unicode="R" horiz-adv-x="657" 
d="M652 7q0 -7 -10 -7h-14q-37 0 -63.5 23.5t-48 59t-41 76.5t-42.5 76.5t-52.5 59t-70.5 23.5h-190v-311q0 -7 -7 -7h-6q-7 0 -7 7v686q0 7 7 7h202q46 0 85 -11.5t66.5 -35t43 -60t15.5 -86.5q0 -78 -41.5 -123.5t-113.5 -59.5q29 -8 52 -33.5t43 -59.5t38.5 -71.5t38 -69
t42 -52t51.5 -20.5h16q7 0 7 -7v-4zM310 336q39 0 73.5 11t60 33t40.5 53.5t15 73.5q0 39 -12.5 71t-36.5 55t-60 36t-83 13h-187v-346h190z" />
    <glyph glyph-name="S" unicode="S" horiz-adv-x="597" 
d="M514 573q-5 -2 -6 3q-2 4 -13 22t-36 38t-65.5 36t-100.5 16q-54 0 -93 -13.5t-65 -36t-38.5 -51.5t-12.5 -59q0 -49 19.5 -78.5t52 -46.5t73.5 -25.5t84.5 -15.5t84.5 -16.5t73.5 -29t52 -52t19.5 -85.5q0 -40 -16 -74t-46 -58.5t-74 -38.5t-101 -14q-71 0 -119 18.5
t-77.5 41t-42.5 41.5t-14 21q-2 4 2 7l7 6q4 3 6 -1q2 -3 15.5 -21.5t41.5 -39.5t72.5 -38t108.5 -17q102 0 159.5 45t57.5 122q0 49 -19.5 78.5t-52 47t-73.5 26t-84.5 15.5t-84.5 16.5t-73.5 28.5t-52 51t-19.5 85q0 37 14.5 69.5t43.5 57t72 38.5t99 14q67 0 111.5 -18
t71 -40t37.5 -41.5t12 -22.5q1 -4 -2 -6z" />
    <glyph glyph-name="T" unicode="T" horiz-adv-x="568" 
d="M547 700q7 0 7 -7v-4q0 -7 -7 -7h-253v-675q0 -7 -7 -7h-6q-7 0 -7 7v675h-253q-7 0 -7 7v4q0 7 7 7h526z" />
    <glyph glyph-name="U" unicode="U" horiz-adv-x="678" 
d="M564 693q0 7 7 7h6q7 0 7 -7v-409q0 -84 -18 -140t-50 -89t-77.5 -47t-99.5 -14t-99.5 14t-77.5 47t-50 89t-18 140v409q0 7 7 7h6q7 0 7 -7v-409q0 -79 16.5 -131t46.5 -83.5t71.5 -44.5t90.5 -13t90.5 13t71.5 44.5t46.5 83.5t16.5 131v409z" />
    <glyph glyph-name="V" unicode="V" horiz-adv-x="614" 
d="M550 694q2 6 7 6h11q3 0 4 -2t0 -4l-251 -686q-1 -2 -3 -5t-5 -3h-12q-5 0 -8 8l-251 686q-1 2 0 4t4 2h11q5 0 7 -6l243 -674z" />
    <glyph glyph-name="W" unicode="W" horiz-adv-x="950" 
d="M683 20l198 673q2 7 7 7h11q3 0 4 -2t0 -4l-206 -687q-2 -7 -8 -7h-12q-7 0 -8 7l-194 663l-194 -663q-2 -7 -8 -7h-12q-6 0 -8 7l-206 687q-1 2 0 4t4 2h11q5 0 7 -7l198 -673l195 673q1 7 8 7h10q6 0 8 -7z" />
    <glyph glyph-name="X" unicode="X" horiz-adv-x="558" 
d="M512 0q-6 0 -10 6l-223 328l-223 -328q-5 -6 -10 -6h-8q-8 0 -4 6l233 343l-233 345q-4 6 4 6h8q5 0 10 -6l223 -330l223 330q4 6 10 6h8q8 0 4 -6l-233 -345l233 -343q4 -6 -4 -6h-8z" />
    <glyph glyph-name="Y" unicode="Y" horiz-adv-x="592" 
d="M293 0q-7 0 -7 7v309l-245 378q-4 6 4 6h8q5 0 10 -6l233 -360l233 360q4 6 10 6h8q8 0 4 -6l-245 -378v-309q0 -7 -7 -7h-6z" />
    <glyph glyph-name="Z" unicode="Z" horiz-adv-x="569" 
d="M49 0q-7 0 -7 7v5q0 6 5 13l456 657h-454q-7 0 -7 7v4q0 7 7 7h471q7 0 7 -7v-5q0 -7 -5 -13l-456 -657h454q7 0 7 -7v-4q0 -7 -7 -7h-471z" />
    <glyph glyph-name="bracketleft" unicode="[" horiz-adv-x="239" 
d="M99 -244q-7 0 -7 7v956q0 7 7 7h94q7 0 7 -6v-5q0 -6 -7 -6h-83v-936h83q7 0 7 -6v-5q0 -6 -7 -6h-94z" />
    <glyph glyph-name="backslash" unicode="\" horiz-adv-x="374" 
d="M324 -224q-7 0 -8 6l-279 918q-2 6 4 6h8q6 0 8 -6l279 -918q2 -6 -4 -6h-8z" />
    <glyph glyph-name="bracketright" unicode="]" horiz-adv-x="239" 
d="M46 -244q-7 0 -7 6v5q0 6 7 6h83v936h-83q-7 0 -7 6v5q0 6 7 6h94q7 0 7 -7v-956q0 -7 -7 -7h-94z" />
    <glyph glyph-name="asciicircum" unicode="^" horiz-adv-x="367" 
d="M75 533q-6 0 -3 5l95 167q3 5 9 5h15q6 0 9 -5l95 -167q3 -5 -3 -5h-10q-7 0 -9 5l-90 151l-89 -151q-3 -5 -9 -5h-10z" />
    <glyph glyph-name="underscore" unicode="_" horiz-adv-x="394" 
d="M350 0q7 0 7 -6v-6q0 -6 -7 -6h-306q-7 0 -7 6v6q0 6 7 6h306z" />
    <glyph glyph-name="grave" unicode="`" horiz-adv-x="228" 
d="M152 568q-6 0 -10 6l-84 131q-3 5 3 5h15q6 0 9 -5l80 -132q3 -5 -3 -5h-10z" />
    <glyph glyph-name="a" unicode="a" horiz-adv-x="487" 
d="M447 6q0 -5 -2.5 -5.5t-7.5 -0.5q-20 0 -35.5 15.5t-15.5 56.5v63q-8 -21 -22 -45.5t-36.5 -45.5t-53.5 -35.5t-73 -14.5q-72 0 -111 30t-39 89q0 55 40.5 87t130.5 32h164v94q0 76 -37 110t-109 34q-73 0 -110.5 -33.5t-37.5 -85.5q0 -16 3 -27t5 -17t-3 -6h-6
q-7 0 -9 6t-5 16.5t-3 30.5q0 28 11 52.5t32.5 42.5t52.5 28.5t70 10.5q80 0 122 -39t42 -123v-254q0 -29 10 -42t28 -14q5 0 5 -5v-5zM386 215h-164q-72 0 -111.5 -26t-39.5 -75t34.5 -76t95.5 -27q27 0 49.5 7t40.5 18.5t32 26.5t25 31q25 37 38 84v37z" />
    <glyph glyph-name="b" unicode="b" horiz-adv-x="524" 
d="M91 0q-7 0 -7 7v712q0 7 7 7h4q7 0 7 -7v-340q13 30 36 54q20 20 51.5 37.5t80.5 17.5q40 0 75.5 -13t62 -42t42 -75t15.5 -112q0 -68 -15.5 -116t-42 -78t-62 -44t-74.5 -14q-51 0 -82.5 15t-51.5 34q-23 21 -35 49v-85q0 -7 -7 -7h-4zM102 131q11 -34 33 -60
q19 -23 51.5 -41.5t84.5 -18.5q38 0 70 14t55.5 43t37 73.5t13.5 104.5t-14.5 103t-39 70t-56.5 39.5t-67 12.5q-49 0 -81 -21t-52 -46q-23 -29 -35 -66v-207z" />
    <glyph glyph-name="c" unicode="c" horiz-adv-x="468" 
d="M59 242q0 69 15.5 116t42.5 76t62.5 41.5t76.5 12.5q43 0 72 -11.5t47 -31t25.5 -44t7.5 -49.5q0 -12 -1 -22t-2 -15t-7 -5h-6q-7 0 -5 7q1 6 2 15.5t1 19.5q0 21 -6.5 42t-22 38t-41 28t-64.5 11q-38 0 -70.5 -12.5t-56.5 -40.5t-38 -71.5t-14 -104.5q0 -71 18.5 -116
t46 -70.5t58.5 -35t57 -9.5q29 0 52 8t40.5 18.5t28.5 22t16 18.5t9 3l6 -5q3 -3 0 -8q-5 -8 -16 -20.5t-29.5 -24.5t-44.5 -20.5t-62 -8.5q-32 0 -67 10.5t-64 38t-48 76t-19 123.5z" />
    <glyph glyph-name="d" unicode="d" horiz-adv-x="529" 
d="M422 358q-12 31 -35 56q-20 21 -52.5 39t-82.5 18q-36 0 -67.5 -14t-55.5 -43t-38 -73t-14 -103q0 -57 14 -100t37.5 -71t55.5 -42t68 -14q54 0 87 22t52 48q22 31 31 71v206zM483 6q0 -7 -10 -7q-20 0 -35.5 16t-15.5 57v40q-12 -33 -34 -59q-20 -23 -52.5 -41
t-83.5 -18q-38 0 -72.5 13.5t-61.5 43t-43 75.5t-16 112q0 67 15 114.5t41.5 77.5t61.5 44t75 14q48 0 80.5 -15t52.5 -32q23 -20 37 -46v324q0 7 7 7h4q7 0 7 -7v-647q0 -29 9.5 -42t26.5 -13q7 0 7 -7v-4z" />
    <glyph glyph-name="e" unicode="e" horiz-adv-x="473" 
d="M77 261v-19q0 -71 18.5 -116t46 -70.5t58.5 -35t57 -9.5q30 0 53 8t40 19t28 22t16 18q6 7 10 3l5 -5q3 -3 0 -8q-4 -6 -14.5 -18.5t-29 -25t-45.5 -21.5t-63 -9q-32 0 -67 10.5t-64 38t-48 76t-19 123.5q0 69 15 116t40.5 76t60.5 41.5t76 12.5q47 0 78.5 -17
t50.5 -45.5t27 -67t8 -80.5q0 -12 -1 -14.5t-6 -2.5h-331zM397 278q0 39 -7 74t-24 61.5t-45 42t-70 15.5q-70 0 -117.5 -45t-55.5 -148h319z" />
    <glyph glyph-name="f" unicode="f" horiz-adv-x="343" 
d="M40 465q-6 0 -6 6v4q0 7 7 7h63v110q0 60 33 97.5t93 37.5q26 0 45.5 -5.5t33 -13.5t21.5 -16.5t12 -13.5q5 -6 1 -10l-5 -5q-3 -3 -8 3q-4 5 -12 12.5t-20 14.5t-29.5 12t-39.5 5q-47 0 -77 -30.5t-30 -87.5v-110h193q7 0 7 -7v-4q0 -6 -6 -6h-194v-458q0 -7 -7 -7h-4
q-7 0 -7 7v458h-64z" />
    <glyph glyph-name="g" unicode="g" horiz-adv-x="498" 
d="M209 20q-66 -1 -107.5 -32.5t-41.5 -91.5t46.5 -93t140.5 -33q97 0 146.5 34t49.5 100q0 57 -41.5 86.5t-106.5 29.5h-86zM408 313q0 36 -13 65t-34.5 49.5t-51 32t-62.5 11.5t-62 -11t-50.5 -32t-34 -50t-12.5 -65t12.5 -65t34 -49.5t50.5 -31.5t62 -11t62.5 11t51 31.5
t34.5 49.5t13 65zM295 37q73 0 119.5 -33.5t46.5 -99.5q0 -74 -53.5 -112.5t-160.5 -38.5t-156 39t-49 104q0 38 14 62.5t31.5 39t33.5 20.5t21 7q-3 0 -16 3t-27 11t-25 23t-11 40q0 32 19 51t50 24q-18 14 -31 33q-12 17 -21.5 42.5t-9.5 60.5q0 40 14 72t38 55t56 35.5
t69 12.5q22 0 39.5 -4t30.5 -9q15 -5 26 -12q56 0 80.5 12.5t26.5 41.5q0 7 6 7h6q4 0 5 -2.5t1 -4.5q-2 -36 -27 -52t-74 -19q16 -13 29 -32q11 -17 20.5 -42t9.5 -59q0 -40 -14 -72.5t-38.5 -55t-57 -34.5t-69.5 -12q-22 0 -39 3.5t-30 8.5q-15 5 -27 13q-25 0 -47.5 -15
t-22.5 -47q0 -21 10 -33.5t28 -19.5t42 -9.5t53 -2.5h81z" />
    <glyph glyph-name="h" unicode="h" horiz-adv-x="518" 
d="M84 719q0 7 7 7h4q7 0 7 -7v-370q6 28 20.5 53.5t35.5 44.5t49 30t62 11q45 0 76.5 -14.5t52 -39.5t29.5 -59t9 -72v-231q0 -29 9.5 -42t26.5 -13q7 0 7 -7v-4q0 -7 -10 -7q-20 0 -35.5 16t-15.5 57v231q0 34 -9 64.5t-27.5 53.5t-46.5 36.5t-66 13.5q-42 0 -73.5 -19
t-52 -48t-31 -64t-10.5 -66v-267q0 -7 -7 -7h-4q-7 0 -7 7v712z" />
    <glyph glyph-name="i" unicode="i" horiz-adv-x="189" 
d="M118 623q0 -11 -7.5 -18.5t-18.5 -7.5t-18.5 7.5t-7.5 18.5t7.5 18.5t18.5 7.5t18.5 -7.5t7.5 -18.5zM143 6q0 -7 -10 -7q-20 0 -35.5 16t-15.5 57v403q0 7 7 7h4q7 0 7 -7v-403q0 -29 9.5 -42t26.5 -13q7 0 7 -7v-4z" />
    <glyph glyph-name="j" unicode="j" horiz-adv-x="186" 
d="M114 628q0 -9 -6 -15t-15 -6t-15 6t-6 15t6 15t15 6t15 -6t6 -15zM102 -103q0 -144 -123 -144q-31 0 -49.5 7.5t-25.5 12.5q-4 2 -3 6l4 10q2 3 4 1t20 -11t50 -9q51 0 78 29t27 98v578q0 7 7 7h4q7 0 7 -7v-578z" />
    <glyph glyph-name="k" unicode="k" horiz-adv-x="511" 
d="M493 6q0 -7 -11 -7q-36 0 -55.5 19.5t-32.5 48.5t-22.5 62.5t-25.5 62.5t-42.5 48.5t-71.5 19.5h-130v-253q0 -7 -7 -7h-4q-7 0 -7 7v712q0 7 7 7h4q7 0 7 -7v-442h129q37 0 68 13.5t54 39t36 62t14 83.5q0 2 1 4.5t5 2.5h6q4 0 5 -2.5t1 -4.5q-1 -32 -8 -64.5t-23 -60.5
t-41.5 -50t-62.5 -32q32 -9 51.5 -31t32 -50t21.5 -58t20.5 -55t28 -41t44.5 -16q9 0 9 -6v-5z" />
    <glyph glyph-name="l" unicode="l" horiz-adv-x="193" 
d="M145 6q0 -7 -10 -7q-20 0 -35.5 16t-15.5 57v647q0 7 7 7h4q7 0 7 -7v-647q0 -29 9.5 -42t26.5 -13q7 0 7 -7v-4z" />
    <glyph glyph-name="m" unicode="m" horiz-adv-x="850" 
d="M768 72q0 -29 9.5 -42t26.5 -13q7 0 7 -7v-4q0 -7 -10 -7q-20 0 -35.5 16t-15.5 57v231q0 34 -8.5 64.5t-26.5 53.5t-46 36.5t-66 13.5q-39 0 -70 -18t-52 -46.5t-32 -65t-11 -72.5v-197q0 -29 9.5 -42t26.5 -13q7 0 7 -7v-4q0 -7 -10 -7q-20 0 -35.5 16t-15.5 57v231
q0 34 -8.5 64.5t-26.5 53.5t-46 36.5t-66 13.5q-42 0 -73 -19t-51.5 -48t-30.5 -64t-10 -66v-267q0 -7 -7 -7h-4q-7 0 -7 7v405q0 23 -7.5 37t-28.5 16q-2 0 -4.5 1t-2.5 5v5q0 7 11 7q19 0 34.5 -16t15.5 -55v-63q6 28 19.5 53.5t34 44.5t48.5 30t63 11q39 0 68 -11.5
t48.5 -31t31 -47t15.5 -58.5q4 27 17 53.5t34 47.5t50.5 34t65.5 13q45 0 76.5 -14.5t51 -39.5t28.5 -59t9 -72v-231z" />
    <glyph glyph-name="n" unicode="n" horiz-adv-x="524" 
d="M90 412q0 23 -7.5 37t-28.5 16q-2 0 -4.5 1t-2.5 5v5q0 7 11 7q19 0 34.5 -16t15.5 -55v-63q6 28 20 53.5t35 44.5t49 30t63 11q45 0 76.5 -14.5t52 -39.5t29.5 -59t9 -72v-231q0 -29 9.5 -42t26.5 -13q7 0 7 -7v-4q0 -7 -10 -7q-20 0 -35.5 16t-15.5 57v231
q0 34 -9 64.5t-27.5 53.5t-46.5 36.5t-66 13.5q-42 0 -73.5 -19t-52.5 -48t-31 -64t-10 -66v-267q0 -7 -7 -7h-4q-7 0 -7 7v405z" />
    <glyph glyph-name="o" unicode="o" horiz-adv-x="514" 
d="M257 -6q-42 0 -78 15t-63 46t-42 77t-15 109t15 109t42 77t63 46t78 15t78 -15t63 -46t42 -77t15 -109t-15 -109t-42 -77t-63 -46t-78 -15zM257 11q35 0 67.5 13.5t57.5 41.5t40 71.5t15 103.5t-15 103.5t-40 71.5t-57.5 41.5t-67.5 13.5t-67.5 -13.5t-57.5 -41.5
t-40 -71.5t-15 -103.5t15 -103.5t40 -71.5t57.5 -41.5t67.5 -13.5z" />
    <glyph glyph-name="p" unicode="p" horiz-adv-x="530" 
d="M108 131q11 -34 33 -60q19 -23 51.5 -41.5t84.5 -18.5q38 0 70 14t55.5 43t37 73.5t13.5 104.5t-14.5 103t-39 70t-56.5 39.5t-67 12.5q-49 0 -81 -21t-52 -46q-23 -29 -35 -66v-207zM47 476q0 7 11 7q19 0 34.5 -16t15.5 -55v-33q13 30 36 54q20 20 51.5 37.5t80.5 17.5
q40 0 75.5 -13t62 -42t42 -75t15.5 -112q0 -68 -15.5 -116t-42 -78t-62 -44t-74.5 -14q-51 0 -82.5 15t-51.5 34q-23 21 -35 49v-329q0 -7 -7 -7h-4q-7 0 -7 7v649q0 23 -7.5 37t-28.5 16q-2 0 -4.5 1t-2.5 5v5z" />
    <glyph glyph-name="q" unicode="q" horiz-adv-x="524" 
d="M422 358q-13 31 -36 56q-20 21 -52 39t-82 18q-37 0 -69 -14t-55.5 -43t-37 -73t-13.5 -103q0 -57 14 -100t38 -71t56 -42t68 -14q53 0 85.5 22t51.5 49q22 31 32 71v205zM433 482q7 0 7 -7v-712q0 -7 -7 -7h-4q-7 0 -7 7v349q-12 -33 -34 -59q-19 -23 -51.5 -41
t-83.5 -18q-38 0 -73 13.5t-62 43t-43 75.5t-16 112q0 67 15 114.5t41.5 77.5t61.5 44t75 14q48 0 80.5 -15t52.5 -32q23 -20 37 -46v80q0 7 7 7h4z" />
    <glyph glyph-name="r" unicode="r" horiz-adv-x="340" 
d="M90 412q0 23 -7.5 37t-28.5 16q-2 0 -4.5 1t-2.5 5v5q0 7 11 7q19 0 34.5 -16t15.5 -55v-63q6 28 19.5 53.5t34 44.5t47.5 30t61 11q18 0 29 -2t14 -3q6 -1 4 -6l-4 -9q-2 -3 -7 -2q-3 1 -11 3t-25 2q-41 0 -71 -19t-50.5 -48t-30.5 -64t-10 -66v-267q0 -7 -7 -7h-4
q-7 0 -7 7v405z" />
    <glyph glyph-name="s" unicode="s" horiz-adv-x="448" 
d="M363 314q-6 0 -4 7q2 5 3.5 14.5t1.5 22.5q0 21 -7.5 41.5t-25 36t-44.5 25.5t-66 10q-71 0 -106.5 -34t-35.5 -85q0 -45 23.5 -66t58.5 -31.5t76.5 -15t76.5 -15.5t58.5 -34.5t23.5 -70.5q0 -59 -42.5 -92t-123.5 -33q-42 0 -73.5 11t-54 26t-35.5 30.5t-17 23.5
q-3 6 2 9l4 3q6 4 9 -2q5 -8 17 -22t32.5 -28t49 -24t66.5 -10q71 0 109.5 28.5t38.5 79.5q0 31 -13.5 49.5t-36 29t-51 16t-58 10.5t-58 12t-51 20.5t-36 36t-13.5 59.5q0 27 9 51.5t28.5 43t49.5 30t73 11.5q46 0 76.5 -12t49.5 -30.5t27 -42t8 -45.5q0 -12 -1.5 -21.5
t-3.5 -15.5q-2 -7 -8 -7h-6z" />
    <glyph glyph-name="t" unicode="t" horiz-adv-x="375" 
d="M337 482q7 0 7 -7v-4q0 -6 -7 -6h-203v-328q0 -62 25.5 -94t86.5 -32q23 0 41.5 7t31.5 15.5t20.5 16.5t9.5 10q4 4 6 0l4 -6q3 -4 1 -7q-3 -4 -12.5 -13t-24 -18t-34 -15.5t-43.5 -6.5q-68 0 -99 35.5t-31 107.5v328h-73q-7 0 -7 6v4q0 7 7 7h73v143q0 7 7 7h4q7 0 7 -7
v-143h203z" />
    <glyph glyph-name="u" unicode="u" horiz-adv-x="515" 
d="M469 6q0 -7 -10 -7q-20 0 -35.5 16t-15.5 57v49q-10 -26 -26.5 -49.5t-38.5 -40.5t-49.5 -27t-60.5 -10t-61.5 8.5t-48.5 27.5t-31.5 50t-11.5 76v319q0 7 7 7h4q7 0 7 -7v-319q0 -40 10 -67.5t28 -45t42.5 -25t54.5 -7.5q41 0 73.5 18t55 44.5t34.5 57t12 55.5v289
q0 7 7 7h4q7 0 7 -7v-403q0 -29 9.5 -42t26.5 -13q7 0 7 -7v-4z" />
    <glyph glyph-name="v" unicode="v" horiz-adv-x="472" 
d="M227 0q-5 0 -8 8l-176 469q-3 5 4 5h9q5 0 7 -5l173 -460l173 460q2 5 7 5h9q6 0 4 -5l-176 -469q-1 -2 -3 -5t-5 -3h-18z" />
    <glyph glyph-name="w" unicode="w" horiz-adv-x="702" 
d="M488 0q-5 0 -8 7l-129 420l-128 -417q-3 -10 -9 -10h-16q-5 0 -8 7l-142 469q-2 6 3 6h10q5 0 7 -6l138 -459l138 452q1 3 5 3h4q3 0 5 -3l138 -452l138 459q2 6 8 6h9q3 0 3.5 -2t-0.5 -4l-141 -466q-3 -10 -9 -10h-16z" />
    <glyph glyph-name="x" unicode="x" horiz-adv-x="439" 
d="M386 0q-6 0 -8 3l-159 225l-157 -224q-3 -4 -9 -4h-11q-5 0 -3 4l167 238l-167 236q-2 4 3 4h11q6 0 9 -4l157 -222l158 222q3 4 9 4h11q5 0 3 -4l-168 -236l168 -238q2 -4 -3 -4h-11z" />
    <glyph glyph-name="y" unicode="y" horiz-adv-x="473" 
d="M190 -157q-7 -19 -15.5 -35.5t-20.5 -28.5t-28 -19t-39 -7q-16 0 -27 2t-16 4t-4 8l1 6q1 6 6 4q6 -2 16.5 -4.5t23.5 -2.5q35 0 52 19t31 54l56 149l-182 485q-2 5 4 5h8q6 0 8 -5l173 -460l173 460q2 5 8 5h8q6 0 4 -5z" />
    <glyph glyph-name="z" unicode="z" horiz-adv-x="429" 
d="M49 0q-6 0 -6 6v5q0 6 2 9l318 445h-314q-6 0 -6 6v4q0 7 7 7h328q7 0 7 -7v-4q0 -6 -3 -10l-317 -444h313q7 0 7 -7v-4q0 -6 -6 -6h-330z" />
    <glyph glyph-name="braceleft" unicode="{" horiz-adv-x="272" 
d="M114 596q0 38 10.5 63t27 40t37 21t40.5 6q5 0 5 -5v-8q0 -5 -5 -5q-45 -2 -71 -28.5t-26 -83.5v-280q0 -22 -6 -36.5t-14.5 -22.5t-16.5 -11.5t-12 -4.5q4 -2 12 -5.5t16.5 -12t14.5 -22.5t6 -35v-280q0 -57 26 -83.5t71 -28.5q5 0 5 -5v-8q0 -5 -5 -5q-22 1 -42.5 7.5
t-36.5 21.5t-26 39.5t-10 61.5v280q0 35 -19.5 51t-49.5 16q-5 0 -5 5v6q0 5 5 5q29 0 49 16t20 51v280z" />
    <glyph glyph-name="bar" unicode="|" horiz-adv-x="204" 
d="M112 -247q0 -7 -7 -7h-6q-7 0 -7 7v976q0 7 7 7h6q7 0 7 -7v-976z" />
    <glyph glyph-name="braceright" unicode="}" horiz-adv-x="272" 
d="M158 316q0 -35 20 -51t49 -16q5 0 5 -5v-6q0 -5 -5 -5q-30 0 -49.5 -16t-19.5 -51v-280q0 -37 -10 -61.5t-26 -39.5t-36.5 -21.5t-42.5 -7.5q-5 0 -5 5v8q0 5 5 5q45 2 71 28.5t26 83.5v280q0 21 6 35t14.5 22.5t16.5 12t12 5.5q-4 1 -12 4.5t-16.5 11.5t-14.5 22.5
t-6 36.5v280q0 57 -26 83.5t-71 28.5q-5 0 -5 5v8q0 5 5 5q20 0 40.5 -6t37 -21t27 -40t10.5 -63v-280z" />
    <glyph glyph-name="asciitilde" unicode="~" horiz-adv-x="398" 
d="M94 231q-5 0 -7 4t-3.5 10.5t-1.5 14.5q0 23 14 38t41 15q18 0 33.5 -6t30 -13.5t30 -13.5t33.5 -6q13 0 22 6t9 20t-4 22q-2 4 4 4h10q6 0 7 -4q1 -2 2.5 -8t1.5 -14q0 -20 -12.5 -33t-39.5 -13q-21 0 -38 6t-31.5 13.5t-28.5 13.5t-29 6t-25 -8.5t-10 -24.5
q0 -8 2 -14.5t4 -10.5q1 -4 -4 -4h-10z" />
    <glyph glyph-name="exclamdown" unicode="&#xa1;" horiz-adv-x="196" 
d="M98 436q-11 0 -18.5 7.5t-7.5 18.5t7.5 18.5t18.5 7.5t18.5 -7.5t7.5 -18.5t-7.5 -18.5t-18.5 -7.5zM90 302q0 6 6 6h4q6 0 6 -6l2 -540q0 -6 -6 -6h-8q-6 0 -6 6z" />
    <glyph glyph-name="cent" unicode="&#xa2;" horiz-adv-x="480" 
d="M84 242q0 -63 15.5 -106t39.5 -70t52.5 -39.5t55.5 -15.5v469q-35 -2 -65 -15.5t-51.5 -42t-34 -73t-12.5 -107.5zM247 -6q-32 2 -64 16.5t-58 44t-42.5 75.5t-16.5 112t13.5 113.5t38 78.5t57.5 46t72 17v70q0 7 7 7h4q7 0 7 -7v-70q36 0 62.5 -11t45 -25t29 -28
t13.5 -21q2 -3 0.5 -4.5l-2.5 -2.5l-6 -5q-2 -2 -4 -1t-3 3q-2 4 -10 16t-24.5 25.5t-41 24.5t-59.5 12v-469q41 1 67.5 13.5t42.5 29t23 32t9 23.5q1 4 6 3l7 -3q4 -2 3 -6l-9 -22.5t-24.5 -36.5t-47.5 -34t-77 -16v-90q0 -7 -7 -7h-4q-7 0 -7 7v90z" />
    <glyph glyph-name="sterling" unicode="&#xa3;" horiz-adv-x="566" 
d="M176 281q-13 21 -29 43t-29.5 48t-23 56.5t-9.5 68.5q0 43 13 81.5t38.5 66.5t63.5 44.5t89 16.5q57 0 96.5 -12t65 -27.5t38.5 -30.5t17 -22q2 -4 -1 -6l-10 -5q-4 -2 -6 2t-13.5 17.5t-35 28t-60.5 26t-91 11.5q-48 0 -82.5 -16t-57 -42t-33 -60.5t-11.5 -71.5
q-1 -38 8.5 -68t24 -56t31 -48.5t29.5 -44.5h217q7 0 7 -7v-4q0 -7 -7 -7h-207q16 -30 16 -59q0 -44 -14.5 -78t-32 -57t-33.5 -36t-19 -15h351q7 0 7 -7v-4q0 -7 -7 -7h-377q-7 0 -7 7v5q0 6 6 10q9 6 26.5 20.5t35 37.5t31 54t13.5 70q0 15 -5 29.5t-13 29.5h-123
q-7 0 -7 7v4q0 7 7 7h113z" />
    <glyph glyph-name="currency" unicode="&#xa4;" horiz-adv-x="584" 
d="M446 377q0 -47 -25 -84l78 -78q4 -4 0 -8l-4 -4q-4 -4 -8 0l-76 76q-21 -26 -52 -40.5t-66 -14.5q-37 -1 -68 14.5t-52 41.5l-76 -77q-4 -4 -8 0l-4 4q-4 4 0 8l78 79q-25 38 -24 84q0 45 24 83l-78 79q-4 4 0 8l4 4q4 4 8 0l76 -77q21 26 52 41.5t67 15.5t66.5 -15.5
t52.5 -41.5l76 77q4 4 8 0l4 -4q4 -4 0 -8l-78 -79q11 -19 18 -40t7 -44zM429 377q0 29 -10.5 54t-29.5 44t-44 29.5t-53 10.5t-53 -11t-43.5 -29.5t-29 -43.5t-10.5 -53q0 -29 10.5 -53.5t29 -43.5t43.5 -29.5t54 -10.5q28 0 53 10.5t43.5 29t29 43.5t10.5 53z" />
    <glyph glyph-name="yen" unicode="&#xa5;" horiz-adv-x="578" 
d="M215 405l-174 270q-4 6 4 6h7q5 0 10 -6l227 -350l227 350q4 6 10 6h7q8 0 4 -6l-175 -270h125q7 0 7 -7v-4q0 -7 -7 -7h-136l-52 -80v-22h158q7 0 7 -7v-4q0 -7 -7 -7h-158v-260q0 -7 -7 -7h-6q-7 0 -7 7v260h-158q-7 0 -7 7v4q0 7 7 7h158v22l-52 80h-136q-7 0 -7 7v4
q0 7 7 7h124z" />
    <glyph glyph-name="brokenbar" unicode="&#xa6;" horiz-adv-x="206" 
d="M93 729q0 7 7 7h6q7 0 7 -7v-368q0 -7 -7 -7h-6q-7 0 -7 7v368zM93 189q0 7 7 7h6q7 0 7 -7v-436q0 -7 -7 -7h-6q-7 0 -7 7v436z" />
    <glyph glyph-name="section" unicode="&#xa7;" horiz-adv-x="620" 
d="M554 179q0 -32 -12 -63.5t-35 -55.5q22 -20 34.5 -53t12.5 -66q0 -40 -15.5 -74t-45.5 -58.5t-74 -38.5t-101 -14q-71 0 -119 18.5t-77.5 41t-42.5 41.5t-14 21q-2 4 2 7l7 6q4 3 6 -1q2 -3 15.5 -21.5t41.5 -39.5t72.5 -38t108.5 -17q102 0 159 45.5t57 121.5
q0 48 -19.5 77.5t-52 46.5t-73.5 25.5t-84.5 16t-84.5 17t-73.5 29t-52 51.5t-19.5 85q0 33 12 59.5t40 54.5q-23 20 -37.5 50.5t-14.5 73.5q0 37 14.5 69.5t43.5 57t72 38.5t99 14q67 0 111.5 -18t71 -40t37.5 -41.5t12 -22.5q1 -4 -2 -6l-9 -5q-5 -2 -6 3q-2 4 -13 22
t-36 38t-65.5 36t-100.5 16q-54 0 -93 -13.5t-65 -36t-38.5 -51.5t-12.5 -59q0 -49 19.5 -78.5t52 -46.5t73.5 -25.5t84.5 -15.5t84.5 -16.5t73.5 -29t52 -52t19.5 -85.5zM534 179q0 50 -20.5 79.5t-54 47t-75.5 26t-85 15.5t-83.5 16.5t-70.5 28.5q-29 -28 -39.5 -50.5
t-10.5 -51.5q0 -50 21 -80t55 -47t77 -25.5t87 -15.5t85 -17.5t71 -31.5q20 21 31.5 47.5t11.5 58.5z" />
    <glyph glyph-name="dieresis" unicode="&#xa8;" horiz-adv-x="309" 
d="M81 607q-11 0 -18.5 7.5t-7.5 18.5t7.5 18.5t18.5 7.5t18.5 -7.5t7.5 -18.5t-7.5 -18.5t-18.5 -7.5zM228 607q-11 0 -18.5 7.5t-7.5 18.5t7.5 18.5t18.5 7.5t18.5 -7.5t7.5 -18.5t-7.5 -18.5t-18.5 -7.5z" />
    <glyph glyph-name="copyright" unicode="&#xa9;" horiz-adv-x="865" 
d="M432 -6q-83 0 -150.5 26.5t-116 75t-75 116.5t-26.5 151t27 151t75.5 116.5t116 75t149.5 26.5t149.5 -26.5t116.5 -75t76 -116.5t27 -151t-26.5 -151t-75.5 -116.5t-117 -75t-150 -26.5zM432 12q78 0 142.5 26t110 72.5t71 111t25.5 141.5t-25.5 141.5t-71.5 111
t-110.5 72.5t-141.5 26t-141 -25.5t-110 -72t-71.5 -111t-25.5 -142.5t25 -142.5t71 -111t110 -72t142 -25.5zM226 352q0 77 17 129t45.5 83.5t65 45t75.5 13.5q50 0 81.5 -16t50.5 -37t27 -42t10 -31q1 -6 -4 -7l-8 -2q-4 -1 -6 5q-2 9 -9 28t-23.5 37.5t-45 33t-73.5 14.5
q-34 0 -67 -12.5t-59.5 -41.5t-42.5 -78t-16 -122q0 -69 19 -113.5t47 -70.5t61 -36t60 -10q39 0 67.5 7t47.5 16.5t30 19t15 14.5q3 4 6 1l6 -5q3 -4 0 -7q-2 -3 -13 -13.5t-32 -21.5t-52.5 -19.5t-74.5 -8.5q-31 0 -67 11.5t-66.5 39.5t-51 75.5t-20.5 120.5z" />
    <glyph glyph-name="ordfeminine" unicode="&#xaa;" horiz-adv-x="351" 
d="M65 495q0 30 23 48t76 18h79v47q0 40 -18 59.5t-57 19.5q-35 0 -54 -16t-19 -40q0 -10 0.5 -14t1.5 -6q2 -5 -4 -5h-4q-8 0 -9 6q-2 8 -2 19q0 27 22 49t68 22q44 0 68.5 -21.5t24.5 -72.5v-136q0 -15 4 -20.5t15 -6.5q5 0 5 -5v-6q0 -6 -5 -6q-12 0 -24.5 7.5
t-12.5 33.5v13q-10 -26 -32.5 -41t-60.5 -15q-35 0 -60 16.5t-25 52.5zM243 546h-79q-45 0 -63.5 -13.5t-18.5 -37.5q0 -28 19.5 -41t48.5 -13q25 0 42.5 8.5t29 22t16.5 30t5 31.5v13z" />
    <glyph glyph-name="guillemotleft" unicode="&#xab;" horiz-adv-x="390" 
d="M55 252q-3 3 -3 9v6q0 6 3 9l119 124q3 3 6 0l6 -7q3 -4 0 -7l-118 -122l118 -122q3 -4 0 -7l-6 -7q-3 -3 -6 0zM181 252q-3 3 -3 9v6q0 6 3 9l119 124q3 3 6 0l6 -7q3 -4 0 -7l-118 -122l118 -122q3 -4 0 -7l-6 -7q-3 -3 -6 0z" />
    <glyph glyph-name="logicalnot" unicode="&#xac;" horiz-adv-x="444" 
d="M342 266h-238q-7 0 -7 6v6q0 6 7 6h251q7 0 7 -6v-114q0 -7 -6 -7h-7q-7 0 -7 7v102z" />
    <glyph glyph-name="registered" unicode="&#xae;" horiz-adv-x="865" 
d="M666 124q0 -7 -17 -7q-24 0 -42 16.5t-33 41t-28.5 53t-29.5 53t-35.5 41t-45.5 16.5h-151v-215q0 -6 -6 -6h-6q-6 0 -6 6v479q0 6 6 6h162q66 0 105 -34.5t39 -103.5q0 -44 -15.5 -69t-34.5 -38q-22 -15 -49 -20q29 -12 49 -46t38 -70t37 -64t46 -28h10q7 0 7 -6v-5z
M435 355q65 0 95.5 29t30.5 86q0 59 -30.5 90t-95.5 31h-151v-236h151zM432 -6q-83 0 -150.5 26.5t-116 75t-75 116.5t-26.5 151t27 151t75.5 116.5t116 75t149.5 26.5t149.5 -26.5t116.5 -75t76 -116.5t27 -151t-26.5 -151t-75.5 -116.5t-117 -75t-150 -26.5zM432 12
q78 0 142.5 26t110 72.5t71 111t25.5 141.5t-25.5 141.5t-71.5 111t-110.5 72.5t-141.5 26t-141 -25.5t-110 -72t-71.5 -111t-25.5 -142.5t25 -142.5t71 -111t110 -72t142 -25.5z" />
    <glyph glyph-name="macron" unicode="&#xaf;" horiz-adv-x="340" 
d="M273 637q7 0 7 -6v-6q0 -6 -7 -6h-206q-7 0 -7 6v6q0 6 7 6h206z" />
    <glyph glyph-name="degree" unicode="&#xb0;" horiz-adv-x="351" 
d="M290 587q0 -24 -9 -44.5t-25 -36t-36.5 -24.5t-44.5 -9t-44.5 9t-36 24.5t-24.5 36t-9 44.5t9 44.5t24.5 36.5t36 25t44.5 9t44.5 -9t36.5 -25t25 -36.5t9 -44.5zM275 587q0 42 -29 71t-71 29t-70.5 -29t-28.5 -71t28.5 -70.5t70.5 -28.5t71 28.5t29 70.5z" />
    <glyph glyph-name="plusminus" unicode="&#xb1;" horiz-adv-x="482" 
d="M251 266v-158q0 -7 -6 -7h-8q-6 0 -6 7v158h-143q-7 0 -7 6v6q0 6 7 6h143v159q0 7 6 7h8q6 0 6 -7v-159h143q7 0 7 -6v-6q0 -6 -7 -6h-143zM394 18q7 0 7 -6v-6q0 -6 -7 -6h-306q-7 0 -7 6v6q0 6 7 6h306z" />
    <glyph glyph-name="uni00B2" unicode="&#xb2;" horiz-adv-x="240" 
d="M45 493q-5 0 -5 5v13q0 26 10.5 42t26 27t34 20t34 20.5t26 27.5t10.5 41q0 32 -18 48.5t-44 16.5q-17 0 -28 -5.5t-18 -13.5t-10 -16t-4 -12q-2 -5 -8 -3l-5 2q-5 2 -4 7t5 14.5t12.5 18.5t23 16t36.5 7q40 0 59.5 -22.5t19.5 -57.5q0 -27 -10.5 -45t-26 -30.5t-34 -22
t-34 -20.5t-26 -25t-10.5 -35v-3h138q5 0 5 -5v-5q0 -5 -5 -5h-150z" />
    <glyph glyph-name="uni00B3" unicode="&#xb3;" horiz-adv-x="251" 
d="M113 625q-6 0 -6 6v3q0 6 6 6h12q9 0 19.5 3.5t19.5 11t15 19t6 27.5q0 21 -16.5 37t-48.5 16q-15 0 -26 -4.5t-18.5 -10t-11 -11t-4.5 -6.5q-2 -4 -7 0l-5 3q-3 2 -1 6q1 1 5 7t12.5 13t22 12.5t33.5 5.5q45 0 63.5 -21.5t18.5 -46.5q0 -18 -5.5 -30.5t-13 -20.5
t-15 -11.5t-11.5 -4.5q4 -2 13 -5.5t18 -11t16 -20.5t7 -32q0 -35 -26.5 -54.5t-65.5 -19.5q-20 0 -34 5t-24 12.5t-15.5 14.5t-7.5 12q-2 3 2 6l5 3q3 2 5 -2q2 -3 7 -9t13.5 -12t20.5 -10.5t28 -4.5q33 0 54 16t21 43q0 18 -7 29.5t-17 18t-22.5 9.5t-22.5 3h-12z" />
    <glyph glyph-name="acute" unicode="&#xb4;" horiz-adv-x="228" 
d="M66 568q-6 0 -3 5l80 132q2 5 9 5h15q6 0 3 -5l-85 -132q-3 -5 -9 -5h-10z" />
    <glyph glyph-name="mu" unicode="&#xb5;" horiz-adv-x="504" 
d="M107 156q0 -40 10 -67.5t28 -45t42.5 -25t54.5 -7.5q41 0 73.5 18t55 44.5t34.5 57t12 55.5v289q0 7 7 7h4q7 0 7 -7v-468q0 -7 -7 -7h-4q-7 0 -7 7v114q-10 -26 -26.5 -49.5t-38.5 -40.5t-49.5 -27t-60.5 -10q-46 0 -81 16t-54 54v-301q0 -7 -7 -7h-4q-7 0 -7 7v712
q0 7 7 7h4q7 0 7 -7v-319v0z" />
    <glyph glyph-name="paragraph" unicode="&#xb6;" horiz-adv-x="540" 
d="M314 300h-70q-49 0 -86 14.5t-62 41t-37.5 63t-12.5 80.5t12.5 81t37.5 63.5t62 41.5t86 15h189q7 0 7 -7v-686q0 -7 -7 -7h-4q-7 0 -7 7v676h-90v-676q0 -7 -7 -7h-4q-7 0 -7 7v293z" />
    <glyph glyph-name="periodcentered" unicode="&#xb7;" horiz-adv-x="208" 
d="M78 355q0 11 7.5 18.5t18.5 7.5t18.5 -7.5t7.5 -18.5t-7.5 -18.5t-18.5 -7.5t-18.5 7.5t-7.5 18.5z" />
    <glyph glyph-name="cedilla" unicode="&#xb8;" horiz-adv-x="253" 
d="M122 -43q26 -2 48.5 -17.5t22.5 -46.5q0 -26 -19 -43t-55 -17q-23 0 -37 7t-19 12q-3 3 -1 7l4 8q2 4 6 1q5 -3 17 -10t31 -7q25 0 39 11t14 31q0 17 -16.5 33t-54.5 16q-7 0 -4 6l19 48q2 5 8 5h8q6 0 4 -5z" />
    <glyph glyph-name="uni00B9" unicode="&#xb9;" horiz-adv-x="175" 
d="M122 498q0 -6 -6 -6h-6q-6 0 -6 6v225q-5 -14 -24 -30t-45 -18q-4 0 -5 4l-2 6q-1 4 4 4q15 1 27 8t21 16.5t15 21.5t8 24q0 2 1.5 4t5.5 2h6q6 0 6 -6v-261z" />
    <glyph glyph-name="ordmasculine" unicode="&#xba;" horiz-adv-x="352" 
d="M176 426q-48 0 -80 33.5t-32 104.5t32 104.5t80 33.5t80 -33.5t32 -104.5t-32 -104.5t-80 -33.5zM176 441q19 0 36 7.5t30 22.5t21 38t8 55t-8 55t-21 38t-30.5 22.5t-35.5 7.5t-35.5 -7t-30.5 -22t-21 -38t-8 -56q0 -65 28.5 -94t66.5 -29z" />
    <glyph glyph-name="guillemotright" unicode="&#xbb;" horiz-adv-x="264" 
d="M90 128q-3 -3 -6 0l-6 7q-4 3 0 7l118 122l-118 122q-4 3 0 7l6 7q3 3 6 0l119 -124q3 -3 3 -9v-6q0 -6 -3 -9zM216 128q-3 -3 -6 0l-6 7q-4 3 0 7l118 122l-118 122q-4 3 0 7l6 7q3 3 6 0l119 -124q3 -3 3 -9v-6q0 -6 -3 -9z" />
    <glyph glyph-name="onequarter" unicode="&#xbc;" horiz-adv-x="458" 
d="M122 6q-2 -6 -8 -6h-7q-6 0 -4 6l208 688q1 6 8 6h7q6 0 4 -6zM136 433q0 -6 -6 -6h-6q-6 0 -6 6v225q-5 -14 -24 -30t-45 -18q-4 0 -5 4l-2 6q-1 4 4 4q15 1 27 8t21 16.5t15 21.5t8 24q0 2 1.5 4t5.5 2h6q6 0 6 -6v-261zM226 79v4.5t2 4.5l94 181q1 4 7 4h11q5 0 3 -4
l-97 -187h116v68q0 6 6 6h6q6 0 6 -6v-68h34q5 0 5 -5v-5q0 -5 -5 -5h-34v-61q0 -6 -6 -6h-6q-6 0 -6 6v61h-131q-5 0 -5 5v7z" />
    <glyph glyph-name="onehalf" unicode="&#xbd;" horiz-adv-x="464" 
d="M122 6q-2 -6 -8 -6h-7q-6 0 -4 6l208 688q1 6 8 6h7q6 0 4 -6zM136 433q0 -6 -6 -6h-6q-6 0 -6 6v225q-5 -14 -24 -30t-45 -18q-4 0 -5 4l-2 6q-1 4 4 4q15 1 27 8t21 16.5t15 21.5t8 24q0 2 1.5 4t5.5 2h6q6 0 6 -6v-261zM258 0q-5 0 -5 5v13q0 26 10.5 42t26 27t34 20
t34 20.5t26 27.5t10.5 41q0 32 -18 48.5t-44 16.5q-17 0 -28 -5.5t-18 -13.5t-10 -16t-4 -12q-2 -5 -8 -3l-5 2q-5 2 -4 7t5 14.5t12.5 18.5t23 16t36.5 7q40 0 59.5 -22.5t19.5 -57.5q0 -27 -10.5 -45t-26 -30.5t-34 -22t-34 -20.5t-26 -25t-10.5 -35v-3h138q5 0 5 -5v-5
q0 -5 -5 -5h-150z" />
    <glyph glyph-name="threequarters" unicode="&#xbe;" horiz-adv-x="517" 
d="M180 6q-2 -6 -8 -6h-7q-6 0 -4 6l208 688q1 6 8 6h7q6 0 4 -6zM127 558q-6 0 -6 6v3q0 6 6 6h12q9 0 19.5 3.5t19.5 11t15 19t6 27.5q0 21 -16.5 37t-48.5 16q-15 0 -26 -4.5t-18.5 -10t-11 -11t-4.5 -6.5q-2 -4 -7 0l-5 3q-3 2 -1 6q1 1 5 7t12.5 13t22 12.5t33.5 5.5
q45 0 63.5 -21.5t18.5 -46.5q0 -18 -5.5 -30.5t-13 -20.5t-15 -11.5t-11.5 -4.5q4 -2 13 -5.5t18 -11t16 -20.5t7 -32q0 -35 -26.5 -54.5t-65.5 -19.5q-20 0 -34 5t-24 12.5t-15.5 14.5t-7.5 12q-2 3 2 6l5 3q3 2 5 -2q2 -3 7 -9t13.5 -12t20.5 -10.5t28 -4.5q33 0 54 16
t21 43q0 18 -7 29.5t-17 18t-22.5 9.5t-22.5 3h-12zM285 79v4.5t2 4.5l94 181q1 4 7 4h11q5 0 3 -4l-97 -187h116v68q0 6 6 6h6q6 0 6 -6v-68h34q5 0 5 -5v-5q0 -5 -5 -5h-34v-61q0 -6 -6 -6h-6q-6 0 -6 6v61h-131q-5 0 -5 5v7z" />
    <glyph glyph-name="questiondown" unicode="&#xbf;" horiz-adv-x="416" 
d="M236 436q-11 0 -18.5 7.5t-7.5 18.5t7.5 18.5t18.5 7.5t18.5 -7.5t7.5 -18.5t-7.5 -18.5t-18.5 -7.5zM368 -82q5 -1 5 -7q0 -33 -12.5 -61t-34.5 -49t-52 -32.5t-64 -11.5q-44 0 -76 14t-52 36.5t-29.5 51t-9.5 57.5q0 45 13.5 75t34 52.5t44.5 42.5t44 45.5t33.5 61.5
t13.5 90q0 2 1 4t5 2h6q4 0 5 -2t1 -4q-1 -58 -14.5 -96t-34 -64t-44 -45t-43.5 -40.5t-33.5 -49.5t-13.5 -72q0 -29 9.5 -54.5t28 -45t46.5 -31t65 -11.5q31 0 58 10.5t46 29.5t30 44.5t11 55.5q0 2 1 4t5 1z" />
    <glyph glyph-name="Agrave" unicode="&#xc0;" horiz-adv-x="628" 
d="M486 230h-344l-86 -225q-2 -5 -7 -5h-9q-7 0 -4 5l264 687q3 8 8 8h12q3 0 5 -3t3 -5l264 -687q2 -5 -4 -5h-9q-5 0 -7 5zM149 248h330l-165 432zM283 786q-6 0 -10 6l-84 131q-3 5 3 5h15q6 0 9 -5l80 -132q3 -5 -3 -5h-10z" />
    <glyph glyph-name="Aacute" unicode="&#xc1;" horiz-adv-x="628" 
d="M486 230h-344l-86 -225q-2 -5 -7 -5h-9q-7 0 -4 5l264 687q3 8 8 8h12q3 0 5 -3t3 -5l264 -687q2 -5 -4 -5h-9q-5 0 -7 5zM149 248h330l-165 432zM312 786q-6 0 -3 5l80 132q2 5 9 5h15q6 0 3 -5l-85 -132q-3 -5 -9 -5h-10z" />
    <glyph glyph-name="Acircumflex" unicode="&#xc2;" horiz-adv-x="628" 
d="M486 230h-344l-86 -225q-2 -5 -7 -5h-9q-7 0 -4 5l264 687q3 8 8 8h12q3 0 5 -3t3 -5l264 -687q2 -5 -4 -5h-9q-5 0 -7 5zM149 248h330l-165 432zM220 786q-6 0 -3 5l80 132q3 5 9 5h15q6 0 9 -5l80 -132q3 -5 -3 -5h-10q-7 0 -9 5l-75 116l-74 -116q-3 -5 -9 -5h-10z
" />
    <glyph glyph-name="Atilde" unicode="&#xc3;" horiz-adv-x="628" 
d="M486 230h-344l-86 -225q-2 -5 -7 -5h-9q-7 0 -4 5l264 687q3 8 8 8h12q3 0 5 -3t3 -5l264 -687q2 -5 -4 -5h-9q-5 0 -7 5zM149 248h330l-165 432zM210 808q-5 0 -7 4t-3.5 10.5t-1.5 14.5q0 23 14 38t41 15q18 0 33.5 -6t30 -13.5t30 -13.5t33.5 -6q13 0 22 6t9 20t-4 22
q-2 4 4 4h10q6 0 7 -4q1 -2 2.5 -8t1.5 -14q0 -20 -12.5 -33t-39.5 -13q-21 0 -38 6t-31.5 13.5t-28.5 13.5t-29 6t-25 -8.5t-10 -24.5q0 -8 2 -14.5t4 -10.5q1 -4 -4 -4h-10z" />
    <glyph glyph-name="Adieresis" unicode="&#xc4;" horiz-adv-x="628" 
d="M486 230h-344l-86 -225q-2 -5 -7 -5h-9q-7 0 -4 5l264 687q3 8 8 8h12q3 0 5 -3t3 -5l264 -687q2 -5 -4 -5h-9q-5 0 -7 5zM149 248h330l-165 432zM241 825q-11 0 -18.5 7.5t-7.5 18.5t7.5 18.5t18.5 7.5t18.5 -7.5t7.5 -18.5t-7.5 -18.5t-18.5 -7.5zM388 825
q-11 0 -18.5 7.5t-7.5 18.5t7.5 18.5t18.5 7.5t18.5 -7.5t7.5 -18.5t-7.5 -18.5t-18.5 -7.5z" />
    <glyph glyph-name="Aring" unicode="&#xc5;" horiz-adv-x="628" 
d="M486 230h-344l-86 -225q-2 -5 -7 -5h-9q-7 0 -4 5l264 687q3 8 8 8h12q3 0 5 -3t3 -5l264 -687q2 -5 -4 -5h-9q-5 0 -7 5zM149 248h330l-165 432zM314 786q-25 0 -41 16t-16 41t16 41t41 16t41 -16t16 -41t-16 -41t-41 -16zM354 843q0 18 -10.5 29t-29.5 11t-29.5 -11
t-10.5 -29t10.5 -29t29.5 -11t29.5 11t10.5 29z" />
    <glyph glyph-name="AE" unicode="&#xc6;" horiz-adv-x="802" 
d="M148 247h335l-165 429zM491 229h-350l-84 -224q-2 -5 -7 -5h-10q-7 0 -4 5l268 687q3 8 8 8h429q7 0 7 -7v-5q0 -7 -7 -7h-404l117 -310h235q7 0 7 -7v-5q0 -7 -7 -7h-227l127 -333h152q7 0 7 -7v-5q0 -7 -7 -7h-160q-6 0 -7 5z" />
    <glyph glyph-name="Ccedilla" unicode="&#xc7;" horiz-adv-x="624" 
d="M570 109q3 -4 0 -8q-2 -3 -16.5 -20t-41.5 -36.5t-67 -35t-93 -15.5l-14 -37q26 -2 48.5 -17.5t22.5 -46.5q0 -26 -19 -43t-55 -17q-23 0 -37 7t-19 12q-3 3 -1 7l4 8q2 4 6 1q5 -3 17 -10t31 -7q25 0 39 11t14 31q0 17 -16.5 33t-54.5 16q-7 0 -4 6l18 47
q-55 3 -103.5 22.5t-84.5 61.5t-57 107.5t-21 160.5q0 98 22 166.5t60 111t88 62t106 19.5q49 0 85 -12.5t60.5 -31.5t40 -42t24.5 -43t12 -34.5t4 -17.5q1 -6 -3 -7l-8 -2q-7 -1 -8 5q-2 12 -11 40t-31.5 56t-62 49.5t-102.5 21.5q-50 0 -96 -17.5t-81.5 -57.5t-57 -105.5
t-21.5 -160.5q0 -98 23 -162.5t60.5 -102.5t85 -54t97.5 -16t87.5 15t63 33.5t39 35t16.5 20.5q2 4 6 0z" />
    <glyph glyph-name="Egrave" unicode="&#xc8;" horiz-adv-x="555" 
d="M107 0q-7 0 -7 7v686q0 7 7 7h376q7 0 7 -7v-4q0 -7 -7 -7h-363v-323h323q7 0 7 -7v-4q0 -7 -7 -7h-323v-323h363q7 0 7 -7v-4q0 -7 -7 -7h-376zM312 786q-6 0 -10 6l-84 131q-3 5 3 5h15q6 0 9 -5l80 -132q3 -5 -3 -5h-10z" />
    <glyph glyph-name="Eacute" unicode="&#xc9;" horiz-adv-x="555" 
d="M107 0q-7 0 -7 7v686q0 7 7 7h376q7 0 7 -7v-4q0 -7 -7 -7h-363v-323h323q7 0 7 -7v-4q0 -7 -7 -7h-323v-323h363q7 0 7 -7v-4q0 -7 -7 -7h-376zM314 786q-6 0 -3 5l80 132q2 5 9 5h15q6 0 3 -5l-85 -132q-3 -5 -9 -5h-10z" />
    <glyph glyph-name="Ecircumflex" unicode="&#xca;" horiz-adv-x="555" 
d="M107 0q-7 0 -7 7v686q0 7 7 7h376q7 0 7 -7v-4q0 -7 -7 -7h-363v-323h323q7 0 7 -7v-4q0 -7 -7 -7h-323v-323h363q7 0 7 -7v-4q0 -7 -7 -7h-376zM234 786q-6 0 -3 5l80 132q3 5 9 5h15q6 0 9 -5l80 -132q3 -5 -3 -5h-10q-7 0 -9 5l-75 116l-74 -116q-3 -5 -9 -5h-10z" />
    <glyph glyph-name="Edieresis" unicode="&#xcb;" horiz-adv-x="555" 
d="M107 0q-7 0 -7 7v686q0 7 7 7h376q7 0 7 -7v-4q0 -7 -7 -7h-363v-323h323q7 0 7 -7v-4q0 -7 -7 -7h-323v-323h363q7 0 7 -7v-4q0 -7 -7 -7h-376zM259 825q-11 0 -18.5 7.5t-7.5 18.5t7.5 18.5t18.5 7.5t18.5 -7.5t7.5 -18.5t-7.5 -18.5t-18.5 -7.5zM406 825
q-11 0 -18.5 7.5t-7.5 18.5t7.5 18.5t18.5 7.5t18.5 -7.5t7.5 -18.5t-7.5 -18.5t-18.5 -7.5z" />
    <glyph glyph-name="Igrave" unicode="&#xcc;" horiz-adv-x="220" 
d="M120 7q0 -7 -7 -7h-6q-7 0 -7 7v686q0 7 7 7h6q7 0 7 -7v-686zM107 786q-6 0 -10 6l-84 131q-3 5 3 5h15q6 0 9 -5l80 -132q3 -5 -3 -5h-10z" />
    <glyph glyph-name="Iacute" unicode="&#xcd;" horiz-adv-x="220" 
d="M120 7q0 -7 -7 -7h-6q-7 0 -7 7v686q0 7 7 7h6q7 0 7 -7v-686zM109 786q-6 0 -3 5l80 132q2 5 9 5h15q6 0 3 -5l-85 -132q-3 -5 -9 -5h-10z" />
    <glyph glyph-name="Icircumflex" unicode="&#xce;" horiz-adv-x="220" 
d="M120 7q0 -7 -7 -7h-6q-7 0 -7 7v686q0 7 7 7h6q7 0 7 -7v-686zM16 786q-6 0 -3 5l80 132q3 5 9 5h15q6 0 9 -5l80 -132q3 -5 -3 -5h-10q-7 0 -9 5l-75 116l-74 -116q-3 -5 -9 -5h-10z" />
    <glyph glyph-name="Idieresis" unicode="&#xcf;" horiz-adv-x="220" 
d="M120 7q0 -7 -7 -7h-6q-7 0 -7 7v686q0 7 7 7h6q7 0 7 -7v-686zM36 825q-11 0 -18.5 7.5t-7.5 18.5t7.5 18.5t18.5 7.5t18.5 -7.5t7.5 -18.5t-7.5 -18.5t-18.5 -7.5zM183 825q-11 0 -18.5 7.5t-7.5 18.5t7.5 18.5t18.5 7.5t18.5 -7.5t7.5 -18.5t-7.5 -18.5t-18.5 -7.5z
" />
    <glyph glyph-name="Eth" unicode="&#xd0;" horiz-adv-x="653" 
d="M107 0q-7 0 -7 7v686q0 7 7 7h153q70 0 130 -21t104 -64.5t68.5 -110t24.5 -158.5q0 -172 -75.5 -259t-211.5 -87h-193zM300 18q61 0 110.5 19.5t84.5 60t53.5 102.5t18.5 146q0 92 -25 156t-67 104t-98 58t-117 18h-140v-323h243q7 0 7 -6v-6q0 -6 -7 -6h-243v-323h180z
" />
    <glyph glyph-name="Ntilde" unicode="&#xd1;" horiz-adv-x="670" 
d="M544 0q-5 0 -10 8l-414 674v-675q0 -7 -7 -7h-6q-7 0 -7 7v686q0 7 7 7h19q5 0 9 -7l415 -675v675q0 7 7 7h6q7 0 7 -7v-686q0 -7 -7 -7h-19zM236 808q-5 0 -7 4t-3.5 10.5t-1.5 14.5q0 23 14 38t41 15q18 0 33.5 -6t30 -13.5t30 -13.5t33.5 -6q13 0 22 6t9 20t-4 22
q-2 4 4 4h10q6 0 7 -4q1 -2 2.5 -8t1.5 -14q0 -20 -12.5 -33t-39.5 -13q-21 0 -38 6t-31.5 13.5t-28.5 13.5t-29 6t-25 -8.5t-10 -24.5q0 -8 2 -14.5t4 -10.5q1 -4 -4 -4h-10z" />
    <glyph glyph-name="Ograve" unicode="&#xd2;" 
d="M346 -6q-52 0 -102.5 18t-90 59.5t-63.5 109.5t-24 168t24 168t63.5 110t90 60.5t102.5 18.5t102.5 -18.5t90 -60.5t63.5 -110t24 -168t-24 -168t-63.5 -109.5t-90 -59.5t-102.5 -18zM346 12q49 0 95.5 17.5t83 57t59 104t22.5 158.5t-22.5 158.5t-59 104.5t-83 58
t-95.5 18t-95.5 -18t-83 -58t-59 -104.5t-22.5 -158.5t22.5 -158.5t59 -104t83 -57t95.5 -17.5zM341 786q-6 0 -10 6l-84 131q-3 5 3 5h15q6 0 9 -5l80 -132q3 -5 -3 -5h-10z" />
    <glyph glyph-name="Oacute" unicode="&#xd3;" 
d="M346 -6q-52 0 -102.5 18t-90 59.5t-63.5 109.5t-24 168t24 168t63.5 110t90 60.5t102.5 18.5t102.5 -18.5t90 -60.5t63.5 -110t24 -168t-24 -168t-63.5 -109.5t-90 -59.5t-102.5 -18zM346 12q49 0 95.5 17.5t83 57t59 104t22.5 158.5t-22.5 158.5t-59 104.5t-83 58
t-95.5 18t-95.5 -18t-83 -58t-59 -104.5t-22.5 -158.5t22.5 -158.5t59 -104t83 -57t95.5 -17.5zM328 786q-6 0 -3 5l80 132q2 5 9 5h15q6 0 3 -5l-85 -132q-3 -5 -9 -5h-10z" />
    <glyph glyph-name="Ocircumflex" unicode="&#xd4;" 
d="M346 -6q-52 0 -102.5 18t-90 59.5t-63.5 109.5t-24 168t24 168t63.5 110t90 60.5t102.5 18.5t102.5 -18.5t90 -60.5t63.5 -110t24 -168t-24 -168t-63.5 -109.5t-90 -59.5t-102.5 -18zM346 12q49 0 95.5 17.5t83 57t59 104t22.5 158.5t-22.5 158.5t-59 104.5t-83 58
t-95.5 18t-95.5 -18t-83 -58t-59 -104.5t-22.5 -158.5t22.5 -158.5t59 -104t83 -57t95.5 -17.5zM259 786q-6 0 -3 5l80 132q3 5 9 5h15q6 0 9 -5l80 -132q3 -5 -3 -5h-10q-7 0 -9 5l-75 116l-74 -116q-3 -5 -9 -5h-10z" />
    <glyph glyph-name="Otilde" unicode="&#xd5;" 
d="M346 -6q-52 0 -102.5 18t-90 59.5t-63.5 109.5t-24 168t24 168t63.5 110t90 60.5t102.5 18.5t102.5 -18.5t90 -60.5t63.5 -110t24 -168t-24 -168t-63.5 -109.5t-90 -59.5t-102.5 -18zM346 12q49 0 95.5 17.5t83 57t59 104t22.5 158.5t-22.5 158.5t-59 104.5t-83 58
t-95.5 18t-95.5 -18t-83 -58t-59 -104.5t-22.5 -158.5t22.5 -158.5t59 -104t83 -57t95.5 -17.5zM249 808q-5 0 -7 4t-3.5 10.5t-1.5 14.5q0 23 14 38t41 15q18 0 33.5 -6t30 -13.5t30 -13.5t33.5 -6q13 0 22 6t9 20t-4 22q-2 4 4 4h10q6 0 7 -4q1 -2 2.5 -8t1.5 -14
q0 -20 -12.5 -33t-39.5 -13q-21 0 -38 6t-31.5 13.5t-28.5 13.5t-29 6t-25 -8.5t-10 -24.5q0 -8 2 -14.5t4 -10.5q1 -4 -4 -4h-10z" />
    <glyph glyph-name="Odieresis" unicode="&#xd6;" 
d="M346 -6q-52 0 -102.5 18t-90 59.5t-63.5 109.5t-24 168t24 168t63.5 110t90 60.5t102.5 18.5t102.5 -18.5t90 -60.5t63.5 -110t24 -168t-24 -168t-63.5 -109.5t-90 -59.5t-102.5 -18zM346 12q49 0 95.5 17.5t83 57t59 104t22.5 158.5t-22.5 158.5t-59 104.5t-83 58
t-95.5 18t-95.5 -18t-83 -58t-59 -104.5t-22.5 -158.5t22.5 -158.5t59 -104t83 -57t95.5 -17.5zM273 825q-11 0 -18.5 7.5t-7.5 18.5t7.5 18.5t18.5 7.5t18.5 -7.5t7.5 -18.5t-7.5 -18.5t-18.5 -7.5zM420 825q-11 0 -18.5 7.5t-7.5 18.5t7.5 18.5t18.5 7.5t18.5 -7.5
t7.5 -18.5t-7.5 -18.5t-18.5 -7.5z" />
    <glyph glyph-name="multiply" unicode="&#xd7;" horiz-adv-x="428" 
d="M227 275l115 -115q5 -5 1 -9l-5 -5q-4 -4 -9 1l-115 115l-115 -115q-5 -5 -9 -1l-5 5q-4 4 1 9l115 115l-115 115q-5 5 -1 9l5 5q4 4 9 -1l115 -115l115 115q5 5 9 1l5 -5q4 -4 -1 -9z" />
    <glyph glyph-name="Oslash" unicode="&#xd8;" 
d="M346 -6q-50 0 -98 16t-86 53l-50 -73q-4 -6 -11 -6h-8q-7 0 -3 6l59 87q-38 42 -60.5 108.5t-22.5 163.5q0 100 24 168t63.5 110t90 60.5t102.5 18.5q50 0 97.5 -16.5t85.5 -53.5l51 74q4 6 11 6h8q7 0 3 -6l-60 -88q38 -42 61 -109t23 -164q0 -100 -24 -168
t-63.5 -109.5t-90 -59.5t-102.5 -18zM346 12q49 0 95.5 17.5t83 57t59 104t22.5 158.5q0 91 -20.5 153.5t-55.5 103.5l-358 -525q36 -37 81 -53t93 -16zM86 349q0 -91 20 -153t55 -102l357 525q-36 36 -80.5 52.5t-91.5 16.5q-49 0 -95.5 -18t-83 -58t-59 -104.5
t-22.5 -158.5z" />
    <glyph glyph-name="Ugrave" unicode="&#xd9;" horiz-adv-x="678" 
d="M564 693q0 7 7 7h6q7 0 7 -7v-409q0 -84 -18 -140t-50 -89t-77.5 -47t-99.5 -14t-99.5 14t-77.5 47t-50 89t-18 140v409q0 7 7 7h6q7 0 7 -7v-409q0 -79 16.5 -131t46.5 -83.5t71.5 -44.5t90.5 -13t90.5 13t71.5 44.5t46.5 83.5t16.5 131v409zM334 786q-6 0 -10 6
l-84 131q-3 5 3 5h15q6 0 9 -5l80 -132q3 -5 -3 -5h-10z" />
    <glyph glyph-name="Uacute" unicode="&#xda;" horiz-adv-x="678" 
d="M564 693q0 7 7 7h6q7 0 7 -7v-409q0 -84 -18 -140t-50 -89t-77.5 -47t-99.5 -14t-99.5 14t-77.5 47t-50 89t-18 140v409q0 7 7 7h6q7 0 7 -7v-409q0 -79 16.5 -131t46.5 -83.5t71.5 -44.5t90.5 -13t90.5 13t71.5 44.5t46.5 83.5t16.5 131v409zM321 786q-6 0 -3 5l80 132
q2 5 9 5h15q6 0 3 -5l-85 -132q-3 -5 -9 -5h-10z" />
    <glyph glyph-name="Ucircumflex" unicode="&#xdb;" horiz-adv-x="678" 
d="M564 693q0 7 7 7h6q7 0 7 -7v-409q0 -84 -18 -140t-50 -89t-77.5 -47t-99.5 -14t-99.5 14t-77.5 47t-50 89t-18 140v409q0 7 7 7h6q7 0 7 -7v-409q0 -79 16.5 -131t46.5 -83.5t71.5 -44.5t90.5 -13t90.5 13t71.5 44.5t46.5 83.5t16.5 131v409zM245 786q-6 0 -3 5l80 132
q3 5 9 5h15q6 0 9 -5l80 -132q3 -5 -3 -5h-10q-7 0 -9 5l-75 116l-74 -116q-3 -5 -9 -5h-10z" />
    <glyph glyph-name="Udieresis" unicode="&#xdc;" horiz-adv-x="678" 
d="M564 693q0 7 7 7h6q7 0 7 -7v-409q0 -84 -18 -140t-50 -89t-77.5 -47t-99.5 -14t-99.5 14t-77.5 47t-50 89t-18 140v409q0 7 7 7h6q7 0 7 -7v-409q0 -79 16.5 -131t46.5 -83.5t71.5 -44.5t90.5 -13t90.5 13t71.5 44.5t46.5 83.5t16.5 131v409zM266 825q-11 0 -18.5 7.5
t-7.5 18.5t7.5 18.5t18.5 7.5t18.5 -7.5t7.5 -18.5t-7.5 -18.5t-18.5 -7.5zM413 825q-11 0 -18.5 7.5t-7.5 18.5t7.5 18.5t18.5 7.5t18.5 -7.5t7.5 -18.5t-7.5 -18.5t-18.5 -7.5z" />
    <glyph glyph-name="Yacute" unicode="&#xdd;" horiz-adv-x="592" 
d="M293 0q-7 0 -7 7v309l-245 378q-4 6 4 6h8q5 0 10 -6l233 -360l233 360q4 6 10 6h8q8 0 4 -6l-245 -378v-309q0 -7 -7 -7h-6zM286 786q-6 0 -3 5l80 132q2 5 9 5h15q6 0 3 -5l-85 -132q-3 -5 -9 -5h-10z" />
    <glyph glyph-name="Thorn" unicode="&#xde;" horiz-adv-x="574" 
d="M300 182q105 0 153.5 48t48.5 134t-48.5 137t-153.5 51h-180v-370h180zM300 570q106 0 164 -51.5t58 -154.5t-58 -151.5t-164 -48.5h-180v-157q0 -7 -7 -7h-6q-7 0 -7 7v686q0 7 7 7h6q7 0 7 -7v-123h180z" />
    <glyph glyph-name="germandbls" unicode="&#xdf;" horiz-adv-x="496" 
d="M168 14q1 4 6 2t28 -8t69 -6q75 0 118.5 33t43.5 101q0 37 -14 65.5t-35 49.5t-45 37t-45 29.5t-35 25.5t-14 26q0 13 8.5 24t21.5 23.5t28.5 27.5t28.5 34t21.5 44t8.5 59q0 24 -7.5 48t-23.5 43t-41 31t-59 12q-60 0 -94.5 -36t-34.5 -112v-560q0 -7 -7 -7h-4
q-7 0 -7 7v560q0 84 41 124.5t106 40.5q39 0 67.5 -13t46.5 -34.5t26.5 -48.5t8.5 -55q0 -51 -18.5 -85t-40 -58t-40 -40t-18.5 -29q0 -10 14 -20.5t35 -23.5t45 -29t45 -38.5t35 -52.5t14 -69q0 -40 -13.5 -68.5t-37.5 -47t-57 -27t-72 -8.5q-41 0 -66 5.5t-36 8.5
q-5 1 -4 6z" />
    <glyph glyph-name="agrave" unicode="&#xe0;" horiz-adv-x="487" 
d="M447 6q0 -5 -2.5 -5.5t-7.5 -0.5q-20 0 -35.5 15.5t-15.5 56.5v63q-8 -21 -22 -45.5t-36.5 -45.5t-53.5 -35.5t-73 -14.5q-72 0 -111 30t-39 89q0 55 40.5 87t130.5 32h164v94q0 76 -37 110t-109 34q-73 0 -110.5 -33.5t-37.5 -85.5q0 -16 3 -27t5 -17t-3 -6h-6
q-7 0 -9 6t-5 16.5t-3 30.5q0 28 11 52.5t32.5 42.5t52.5 28.5t70 10.5q80 0 122 -39t42 -123v-254q0 -29 10 -42t28 -14q5 0 5 -5v-5zM386 215h-164q-72 0 -111.5 -26t-39.5 -75t34.5 -76t95.5 -27q27 0 49.5 7t40.5 18.5t32 26.5t25 31q25 37 38 84v37zM226 568
q-6 0 -10 6l-84 131q-3 5 3 5h15q6 0 9 -5l80 -132q3 -5 -3 -5h-10z" />
    <glyph glyph-name="aacute" unicode="&#xe1;" horiz-adv-x="487" 
d="M447 6q0 -5 -2.5 -5.5t-7.5 -0.5q-20 0 -35.5 15.5t-15.5 56.5v63q-8 -21 -22 -45.5t-36.5 -45.5t-53.5 -35.5t-73 -14.5q-72 0 -111 30t-39 89q0 55 40.5 87t130.5 32h164v94q0 76 -37 110t-109 34q-73 0 -110.5 -33.5t-37.5 -85.5q0 -16 3 -27t5 -17t-3 -6h-6
q-7 0 -9 6t-5 16.5t-3 30.5q0 28 11 52.5t32.5 42.5t52.5 28.5t70 10.5q80 0 122 -39t42 -123v-254q0 -29 10 -42t28 -14q5 0 5 -5v-5zM386 215h-164q-72 0 -111.5 -26t-39.5 -75t34.5 -76t95.5 -27q27 0 49.5 7t40.5 18.5t32 26.5t25 31q25 37 38 84v37zM222 568q-6 0 -3 5
l80 132q2 5 9 5h15q6 0 3 -5l-85 -132q-3 -5 -9 -5h-10z" />
    <glyph glyph-name="acircumflex" unicode="&#xe2;" horiz-adv-x="487" 
d="M447 6q0 -5 -2.5 -5.5t-7.5 -0.5q-20 0 -35.5 15.5t-15.5 56.5v63q-8 -21 -22 -45.5t-36.5 -45.5t-53.5 -35.5t-73 -14.5q-72 0 -111 30t-39 89q0 55 40.5 87t130.5 32h164v94q0 76 -37 110t-109 34q-73 0 -110.5 -33.5t-37.5 -85.5q0 -16 3 -27t5 -17t-3 -6h-6
q-7 0 -9 6t-5 16.5t-3 30.5q0 28 11 52.5t32.5 42.5t52.5 28.5t70 10.5q80 0 122 -39t42 -123v-254q0 -29 10 -42t28 -14q5 0 5 -5v-5zM386 215h-164q-72 0 -111.5 -26t-39.5 -75t34.5 -76t95.5 -27q27 0 49.5 7t40.5 18.5t32 26.5t25 31q25 37 38 84v37zM152 568q-6 0 -3 5
l80 132q3 5 9 5h15q6 0 9 -5l80 -132q3 -5 -3 -5h-10q-7 0 -9 5l-75 116l-74 -116q-3 -5 -9 -5h-10z" />
    <glyph glyph-name="atilde" unicode="&#xe3;" horiz-adv-x="487" 
d="M447 6q0 -5 -2.5 -5.5t-7.5 -0.5q-20 0 -35.5 15.5t-15.5 56.5v63q-8 -21 -22 -45.5t-36.5 -45.5t-53.5 -35.5t-73 -14.5q-72 0 -111 30t-39 89q0 55 40.5 87t130.5 32h164v94q0 76 -37 110t-109 34q-73 0 -110.5 -33.5t-37.5 -85.5q0 -16 3 -27t5 -17t-3 -6h-6
q-7 0 -9 6t-5 16.5t-3 30.5q0 28 11 52.5t32.5 42.5t52.5 28.5t70 10.5q80 0 122 -39t42 -123v-254q0 -29 10 -42t28 -14q5 0 5 -5v-5zM386 215h-164q-72 0 -111.5 -26t-39.5 -75t34.5 -76t95.5 -27q27 0 49.5 7t40.5 18.5t32 26.5t25 31q25 37 38 84v37zM128 590q-5 0 -7 4
t-3.5 10.5t-1.5 14.5q0 23 14 38t41 15q18 0 33.5 -6t30 -13.5t30 -13.5t33.5 -6q13 0 22 6t9 20t-4 22q-2 4 4 4h10q6 0 7 -4q1 -2 2.5 -8t1.5 -14q0 -20 -12.5 -33t-39.5 -13q-21 0 -38 6t-31.5 13.5t-28.5 13.5t-29 6t-25 -8.5t-10 -24.5q0 -8 2 -14.5t4 -10.5
q1 -4 -4 -4h-10z" />
    <glyph glyph-name="adieresis" unicode="&#xe4;" horiz-adv-x="487" 
d="M447 6q0 -5 -2.5 -5.5t-7.5 -0.5q-20 0 -35.5 15.5t-15.5 56.5v63q-8 -21 -22 -45.5t-36.5 -45.5t-53.5 -35.5t-73 -14.5q-72 0 -111 30t-39 89q0 55 40.5 87t130.5 32h164v94q0 76 -37 110t-109 34q-73 0 -110.5 -33.5t-37.5 -85.5q0 -16 3 -27t5 -17t-3 -6h-6
q-7 0 -9 6t-5 16.5t-3 30.5q0 28 11 52.5t32.5 42.5t52.5 28.5t70 10.5q80 0 122 -39t42 -123v-254q0 -29 10 -42t28 -14q5 0 5 -5v-5zM386 215h-164q-72 0 -111.5 -26t-39.5 -75t34.5 -76t95.5 -27q27 0 49.5 7t40.5 18.5t32 26.5t25 31q25 37 38 84v37zM172 607
q-11 0 -18.5 7.5t-7.5 18.5t7.5 18.5t18.5 7.5t18.5 -7.5t7.5 -18.5t-7.5 -18.5t-18.5 -7.5zM319 607q-11 0 -18.5 7.5t-7.5 18.5t7.5 18.5t18.5 7.5t18.5 -7.5t7.5 -18.5t-7.5 -18.5t-18.5 -7.5z" />
    <glyph glyph-name="aring" unicode="&#xe5;" horiz-adv-x="487" 
d="M447 6q0 -5 -2.5 -5.5t-7.5 -0.5q-20 0 -35.5 15.5t-15.5 56.5v63q-8 -21 -22 -45.5t-36.5 -45.5t-53.5 -35.5t-73 -14.5q-72 0 -111 30t-39 89q0 55 40.5 87t130.5 32h164v94q0 76 -37 110t-109 34q-73 0 -110.5 -33.5t-37.5 -85.5q0 -16 3 -27t5 -17t-3 -6h-6
q-7 0 -9 6t-5 16.5t-3 30.5q0 28 11 52.5t32.5 42.5t52.5 28.5t70 10.5q80 0 122 -39t42 -123v-254q0 -29 10 -42t28 -14q5 0 5 -5v-5zM386 215h-164q-72 0 -111.5 -26t-39.5 -75t34.5 -76t95.5 -27q27 0 49.5 7t40.5 18.5t32 26.5t25 31q25 37 38 84v37zM245 568
q-25 0 -41 16t-16 41t16 41t41 16t41 -16t16 -41t-16 -41t-41 -16zM285 625q0 18 -10.5 29t-29.5 11t-29.5 -11t-10.5 -29t10.5 -29t29.5 -11t29.5 11t10.5 29z" />
    <glyph glyph-name="ae" unicode="&#xe6;" horiz-adv-x="800" 
d="M404 261v-19q0 -71 18.5 -116t46 -70.5t58.5 -35t57 -9.5q30 0 53 8t40 19t28 22t16 18t9 3l6 -5q3 -3 0 -8q-4 -6 -14.5 -18.5t-29 -25t-45.5 -21.5t-63 -9q-24 0 -52.5 7t-55.5 24.5t-48.5 47.5t-30.5 76q-9 -22 -25.5 -49t-40.5 -50.5t-56.5 -39.5t-73.5 -16
q-72 0 -111 30t-39 89q0 55 40.5 87t130.5 32h164v94q0 76 -37 110t-109 34q-73 0 -110.5 -33.5t-37.5 -85.5q0 -16 3 -27t5 -17t-3 -6h-6q-7 0 -9 6q-3 6 -5.5 18t-2.5 29q0 28 11 52.5t32.5 42.5t52.5 28.5t70 10.5q71 0 112 -30.5t50 -96.5q22 69 69 98t107 29
q47 0 78.5 -17t50.5 -45.5t27 -67t8 -80.5q0 -11 -1 -14t-6 -3h-331zM386 215h-164q-72 0 -111.5 -26t-39.5 -75t34.5 -76t95.5 -27q27 0 49.5 7t40.5 18.5t32 26.5t25 31q25 37 38 84v37zM724 278q0 39 -7 74t-24 61.5t-45 42t-70 15.5q-70 0 -117.5 -45t-55.5 -148h319z
" />
    <glyph glyph-name="ccedilla" unicode="&#xe7;" horiz-adv-x="468" 
d="M59 242q0 69 15.5 116t42.5 76t62.5 41.5t76.5 12.5q43 0 72 -11.5t47 -31t25.5 -44t7.5 -49.5q0 -12 -1 -21t-2 -14q-2 -7 -7 -7h-6q-7 0 -5 7q1 6 2 15.5t1 19.5q0 21 -6.5 42t-22 38t-41 28t-64.5 11q-38 0 -70.5 -12.5t-56.5 -40.5t-38 -71.5t-14 -104.5
q0 -71 18.5 -116t46 -70.5t58.5 -35t57 -9.5q29 0 52 8t40.5 18.5t28.5 22t16 18.5t9 3l6 -5q3 -3 0 -8q-5 -8 -16 -20.5t-29 -24t-44 -20.5t-61 -9l-14 -37q26 -2 48.5 -17.5t22.5 -46.5q0 -26 -19 -43t-55 -17q-23 0 -37 7t-19 12q-3 3 -1 7l4 8q2 4 6 1q5 -3 17 -10
t31 -7q25 0 39 11t14 31q0 17 -16.5 33t-54.5 16q-7 0 -4 6l18 47q-31 2 -63 14.5t-58 40.5t-42.5 74.5t-16.5 117.5z" />
    <glyph glyph-name="egrave" unicode="&#xe8;" horiz-adv-x="473" 
d="M77 261v-19q0 -71 18.5 -116t46 -70.5t58.5 -35t57 -9.5q30 0 53 8t40 19t28 22t16 18q6 7 10 3l5 -5q3 -3 0 -8q-4 -6 -14.5 -18.5t-29 -25t-45.5 -21.5t-63 -9q-32 0 -67 10.5t-64 38t-48 76t-19 123.5q0 69 15 116t40.5 76t60.5 41.5t76 12.5q47 0 78.5 -17
t50.5 -45.5t27 -67t8 -80.5q0 -12 -1 -14.5t-6 -2.5h-331zM397 278q0 39 -7 74t-24 61.5t-45 42t-70 15.5q-70 0 -117.5 -45t-55.5 -148h319zM226 568q-6 0 -10 6l-84 131q-3 5 3 5h15q6 0 9 -5l80 -132q3 -5 -3 -5h-10z" />
    <glyph glyph-name="eacute" unicode="&#xe9;" horiz-adv-x="473" 
d="M77 261v-19q0 -71 18.5 -116t46 -70.5t58.5 -35t57 -9.5q30 0 53 8t40 19t28 22t16 18q6 7 10 3l5 -5q3 -3 0 -8q-4 -6 -14.5 -18.5t-29 -25t-45.5 -21.5t-63 -9q-32 0 -67 10.5t-64 38t-48 76t-19 123.5q0 69 15 116t40.5 76t60.5 41.5t76 12.5q47 0 78.5 -17
t50.5 -45.5t27 -67t8 -80.5q0 -12 -1 -14.5t-6 -2.5h-331zM397 278q0 39 -7 74t-24 61.5t-45 42t-70 15.5q-70 0 -117.5 -45t-55.5 -148h319zM238 568q-6 0 -3 5l80 132q2 5 9 5h15q6 0 3 -5l-85 -132q-3 -5 -9 -5h-10z" />
    <glyph glyph-name="ecircumflex" unicode="&#xea;" horiz-adv-x="473" 
d="M77 261v-19q0 -71 18.5 -116t46 -70.5t58.5 -35t57 -9.5q30 0 53 8t40 19t28 22t16 18q6 7 10 3l5 -5q3 -3 0 -8q-4 -6 -14.5 -18.5t-29 -25t-45.5 -21.5t-63 -9q-32 0 -67 10.5t-64 38t-48 76t-19 123.5q0 69 15 116t40.5 76t60.5 41.5t76 12.5q47 0 78.5 -17
t50.5 -45.5t27 -67t8 -80.5q0 -12 -1 -14.5t-6 -2.5h-331zM397 278q0 39 -7 74t-24 61.5t-45 42t-70 15.5q-70 0 -117.5 -45t-55.5 -148h319zM160 568q-6 0 -3 5l80 132q3 5 9 5h15q6 0 9 -5l80 -132q3 -5 -3 -5h-10q-7 0 -9 5l-75 116l-74 -116q-3 -5 -9 -5h-10z" />
    <glyph glyph-name="edieresis" unicode="&#xeb;" horiz-adv-x="473" 
d="M77 261v-19q0 -71 18.5 -116t46 -70.5t58.5 -35t57 -9.5q30 0 53 8t40 19t28 22t16 18q6 7 10 3l5 -5q3 -3 0 -8q-4 -6 -14.5 -18.5t-29 -25t-45.5 -21.5t-63 -9q-32 0 -67 10.5t-64 38t-48 76t-19 123.5q0 69 15 116t40.5 76t60.5 41.5t76 12.5q47 0 78.5 -17
t50.5 -45.5t27 -67t8 -80.5q0 -12 -1 -14.5t-6 -2.5h-331zM397 278q0 39 -7 74t-24 61.5t-45 42t-70 15.5q-70 0 -117.5 -45t-55.5 -148h319zM180 607q-11 0 -18.5 7.5t-7.5 18.5t7.5 18.5t18.5 7.5t18.5 -7.5t7.5 -18.5t-7.5 -18.5t-18.5 -7.5zM327 607q-11 0 -18.5 7.5
t-7.5 18.5t7.5 18.5t18.5 7.5t18.5 -7.5t7.5 -18.5t-7.5 -18.5t-18.5 -7.5z" />
    <glyph glyph-name="igrave" unicode="&#xec;" horiz-adv-x="189" 
d="M86 568q-6 0 -10 6l-84 131q-3 5 3 5h15q6 0 9 -5l80 -132q3 -5 -3 -5h-10zM143 6q0 -7 -10 -7q-20 0 -35.5 16t-15.5 57v403q0 7 7 7h4q7 0 7 -7v-403q0 -29 9.5 -42t26.5 -13q7 0 7 -7v-4z" />
    <glyph glyph-name="iacute" unicode="&#xed;" horiz-adv-x="189" 
d="M88 568q-6 0 -3 5l80 132q2 5 9 5h15q6 0 3 -5l-85 -132q-3 -5 -9 -5h-10zM143 6q0 -7 -10 -7q-20 0 -35.5 16t-15.5 57v403q0 7 7 7h4q7 0 7 -7v-403q0 -29 9.5 -42t26.5 -13q7 0 7 -7v-4z" />
    <glyph glyph-name="icircumflex" unicode="&#xee;" horiz-adv-x="189" 
d="M-1 568q-6 0 -3 5l80 132q3 5 9 5h15q6 0 9 -5l80 -132q3 -5 -3 -5h-10q-7 0 -9 5l-75 116l-74 -116q-3 -5 -9 -5h-10zM143 6q0 -7 -10 -7q-20 0 -35.5 16t-15.5 57v403q0 7 7 7h4q7 0 7 -7v-403q0 -29 9.5 -42t26.5 -13q7 0 7 -7v-4z" />
    <glyph glyph-name="idieresis" unicode="&#xef;" horiz-adv-x="189" 
d="M18 607q-11 0 -18.5 7.5t-7.5 18.5t7.5 18.5t18.5 7.5t18.5 -7.5t7.5 -18.5t-7.5 -18.5t-18.5 -7.5zM165 607q-11 0 -18.5 7.5t-7.5 18.5t7.5 18.5t18.5 7.5t18.5 -7.5t7.5 -18.5t-7.5 -18.5t-18.5 -7.5zM143 6q0 -7 -10 -7q-20 0 -35.5 16t-15.5 57v403q0 7 7 7h4
q7 0 7 -7v-403q0 -29 9.5 -42t26.5 -13q7 0 7 -7v-4z" />
    <glyph glyph-name="eth" unicode="&#xf0;" horiz-adv-x="553" 
d="M470 313q-22 28 -53 50q-26 19 -64 35t-88 16q-39 0 -73 -13.5t-59.5 -39.5t-40 -65t-14.5 -90q0 -44 13 -79.5t37.5 -61.5t58.5 -40t76 -14q46 0 84 16t65.5 52t42.5 93.5t15 140.5zM235 541q-3 5 2 8l118 74q-20 16 -45 29q-21 11 -50.5 20.5t-65.5 9.5q-7 0 -7 7v4
q0 7 7 7q39 0 71.5 -10.5t55.5 -23.5q27 -15 49 -34l103 65q5 3 8 -2l3 -6q2 -5 -2 -8l-98 -62q29 -28 52 -69q20 -35 36 -90.5t16 -133.5q0 -92 -15 -155t-44 -102.5t-71.5 -57t-96.5 -17.5q-44 0 -80.5 15t-63.5 42.5t-42 66.5t-15 88q0 56 16 98t43.5 70.5t65 42.5
t80.5 14q50 0 88 -15t64 -32q31 -20 53 -46q0 72 -16 123.5t-35 84.5q-22 39 -50 64l-123 -77q-5 -4 -8 2z" />
    <glyph glyph-name="ntilde" unicode="&#xf1;" horiz-adv-x="524" 
d="M156 590q-5 0 -7 4t-3.5 10.5t-1.5 14.5q0 23 14 38t41 15q18 0 33.5 -6t30 -13.5t30 -13.5t33.5 -6q13 0 22 6t9 20t-4 22q-2 4 4 4h10q6 0 7 -4q1 -2 2.5 -8t1.5 -14q0 -20 -12.5 -33t-39.5 -13q-21 0 -38 6t-31.5 13.5t-28.5 13.5t-29 6t-25 -8.5t-10 -24.5
q0 -8 2 -14.5t4 -10.5q1 -4 -4 -4h-10zM90 412q0 23 -7.5 37t-28.5 16q-2 0 -4.5 1t-2.5 5v5q0 7 11 7q19 0 34.5 -16t15.5 -55v-63q6 28 20 53.5t35 44.5t49 30t63 11q45 0 76.5 -14.5t52 -39.5t29.5 -59t9 -72v-231q0 -29 9.5 -42t26.5 -13q7 0 7 -7v-4q0 -7 -10 -7
q-20 0 -35.5 16t-15.5 57v231q0 34 -9 64.5t-27.5 53.5t-46.5 36.5t-66 13.5q-42 0 -73.5 -19t-52.5 -48t-31 -64t-10 -66v-267q0 -7 -7 -7h-4q-7 0 -7 7v405z" />
    <glyph glyph-name="ograve" unicode="&#xf2;" horiz-adv-x="514" 
d="M257 -6q-42 0 -78 15t-63 46t-42 77t-15 109t15 109t42 77t63 46t78 15t78 -15t63 -46t42 -77t15 -109t-15 -109t-42 -77t-63 -46t-78 -15zM257 11q35 0 67.5 13.5t57.5 41.5t40 71.5t15 103.5t-15 103.5t-40 71.5t-57.5 41.5t-67.5 13.5t-67.5 -13.5t-57.5 -41.5
t-40 -71.5t-15 -103.5t15 -103.5t40 -71.5t57.5 -41.5t67.5 -13.5zM245 568q-6 0 -10 6l-84 131q-3 5 3 5h15q6 0 9 -5l80 -132q3 -5 -3 -5h-10z" />
    <glyph glyph-name="oacute" unicode="&#xf3;" horiz-adv-x="514" 
d="M257 -6q-42 0 -78 15t-63 46t-42 77t-15 109t15 109t42 77t63 46t78 15t78 -15t63 -46t42 -77t15 -109t-15 -109t-42 -77t-63 -46t-78 -15zM257 11q35 0 67.5 13.5t57.5 41.5t40 71.5t15 103.5t-15 103.5t-40 71.5t-57.5 41.5t-67.5 13.5t-67.5 -13.5t-57.5 -41.5
t-40 -71.5t-15 -103.5t15 -103.5t40 -71.5t57.5 -41.5t67.5 -13.5zM251 568q-6 0 -3 5l80 132q2 5 9 5h15q6 0 3 -5l-85 -132q-3 -5 -9 -5h-10z" />
    <glyph glyph-name="ocircumflex" unicode="&#xf4;" horiz-adv-x="514" 
d="M257 -6q-42 0 -78 15t-63 46t-42 77t-15 109t15 109t42 77t63 46t78 15t78 -15t63 -46t42 -77t15 -109t-15 -109t-42 -77t-63 -46t-78 -15zM257 11q35 0 67.5 13.5t57.5 41.5t40 71.5t15 103.5t-15 103.5t-40 71.5t-57.5 41.5t-67.5 13.5t-67.5 -13.5t-57.5 -41.5
t-40 -71.5t-15 -103.5t15 -103.5t40 -71.5t57.5 -41.5t67.5 -13.5zM163 568q-6 0 -3 5l80 132q3 5 9 5h15q6 0 9 -5l80 -132q3 -5 -3 -5h-10q-7 0 -9 5l-75 116l-74 -116q-3 -5 -9 -5h-10z" />
    <glyph glyph-name="otilde" unicode="&#xf5;" horiz-adv-x="514" 
d="M257 -6q-42 0 -78 15t-63 46t-42 77t-15 109t15 109t42 77t63 46t78 15t78 -15t63 -46t42 -77t15 -109t-15 -109t-42 -77t-63 -46t-78 -15zM257 11q35 0 67.5 13.5t57.5 41.5t40 71.5t15 103.5t-15 103.5t-40 71.5t-57.5 41.5t-67.5 13.5t-67.5 -13.5t-57.5 -41.5
t-40 -71.5t-15 -103.5t15 -103.5t40 -71.5t57.5 -41.5t67.5 -13.5zM148 590q-5 0 -7 4t-3.5 10.5t-1.5 14.5q0 23 14 38t41 15q18 0 33.5 -6t30 -13.5t30 -13.5t33.5 -6q13 0 22 6t9 20t-4 22q-2 4 4 4h10q6 0 7 -4q1 -2 2.5 -8t1.5 -14q0 -20 -12.5 -33t-39.5 -13
q-21 0 -38 6t-31.5 13.5t-28.5 13.5t-29 6t-25 -8.5t-10 -24.5q0 -8 2 -14.5t4 -10.5q1 -4 -4 -4h-10z" />
    <glyph glyph-name="odieresis" unicode="&#xf6;" horiz-adv-x="514" 
d="M257 -6q-42 0 -78 15t-63 46t-42 77t-15 109t15 109t42 77t63 46t78 15t78 -15t63 -46t42 -77t15 -109t-15 -109t-42 -77t-63 -46t-78 -15zM257 11q35 0 67.5 13.5t57.5 41.5t40 71.5t15 103.5t-15 103.5t-40 71.5t-57.5 41.5t-67.5 13.5t-67.5 -13.5t-57.5 -41.5
t-40 -71.5t-15 -103.5t15 -103.5t40 -71.5t57.5 -41.5t67.5 -13.5zM185 607q-11 0 -18.5 7.5t-7.5 18.5t7.5 18.5t18.5 7.5t18.5 -7.5t7.5 -18.5t-7.5 -18.5t-18.5 -7.5zM332 607q-11 0 -18.5 7.5t-7.5 18.5t7.5 18.5t18.5 7.5t18.5 -7.5t7.5 -18.5t-7.5 -18.5t-18.5 -7.5z
" />
    <glyph glyph-name="divide" unicode="&#xf7;" horiz-adv-x="489" 
d="M400 284q7 0 7 -6v-6q0 -6 -7 -6h-310q-7 0 -7 6v6q0 6 7 6h310zM221 160q0 11 9 20t20 9t20 -9t9 -20t-9 -20t-20 -9t-20 9t-9 20zM221 386q0 11 7.5 18.5t18.5 7.5t18.5 -7.5t7.5 -18.5t-7.5 -18.5t-18.5 -7.5t-18.5 7.5t-7.5 18.5z" />
    <glyph glyph-name="oslash" unicode="&#xf8;" horiz-adv-x="514" 
d="M257 -6q-73 0 -122 42l-32 -50q-4 -6 -10 -6h-8q-7 0 -2 6l40 61q-30 31 -47 79t-17 115q0 63 15 109t42 77t63 46t78 15q71 0 121 -42l33 50q4 6 10 6h8q6 0 2 -6l-40 -62q30 -31 47 -79t17 -114q0 -63 -15 -109t-42 -77t-63 -46t-78 -15zM257 11q35 0 67.5 13.5
t57.5 41.5t40 71.5t15 103.5q0 62 -15.5 105.5t-41.5 71.5l-235 -366q23 -21 52 -31t60 -10zM77 241q0 -61 15 -104.5t41 -72.5l235 365q-47 42 -111 42q-35 0 -67.5 -13.5t-57.5 -41.5t-40 -71.5t-15 -103.5z" />
    <glyph glyph-name="ugrave" unicode="&#xf9;" horiz-adv-x="515" 
d="M469 6q0 -7 -10 -7q-20 0 -35.5 16t-15.5 57v49q-10 -26 -26.5 -49.5t-38.5 -40.5t-49.5 -27t-60.5 -10t-61.5 8.5t-48.5 27.5t-31.5 50t-11.5 76v319q0 7 7 7h4q7 0 7 -7v-319q0 -40 10 -67.5t28 -45t42.5 -25t54.5 -7.5q41 0 73.5 18t55 44.5t34.5 57t12 55.5v289
q0 7 7 7h4q7 0 7 -7v-403q0 -29 9.5 -42t26.5 -13q7 0 7 -7v-4zM253 568q-6 0 -10 6l-84 131q-3 5 3 5h15q6 0 9 -5l80 -132q3 -5 -3 -5h-10z" />
    <glyph glyph-name="uacute" unicode="&#xfa;" horiz-adv-x="515" 
d="M469 6q0 -7 -10 -7q-20 0 -35.5 16t-15.5 57v49q-10 -26 -26.5 -49.5t-38.5 -40.5t-49.5 -27t-60.5 -10t-61.5 8.5t-48.5 27.5t-31.5 50t-11.5 76v319q0 7 7 7h4q7 0 7 -7v-319q0 -40 10 -67.5t28 -45t42.5 -25t54.5 -7.5q41 0 73.5 18t55 44.5t34.5 57t12 55.5v289
q0 7 7 7h4q7 0 7 -7v-403q0 -29 9.5 -42t26.5 -13q7 0 7 -7v-4zM229 568q-6 0 -3 5l80 132q2 5 9 5h15q6 0 3 -5l-85 -132q-3 -5 -9 -5h-10z" />
    <glyph glyph-name="ucircumflex" unicode="&#xfb;" horiz-adv-x="515" 
d="M469 6q0 -7 -10 -7q-20 0 -35.5 16t-15.5 57v49q-10 -26 -26.5 -49.5t-38.5 -40.5t-49.5 -27t-60.5 -10t-61.5 8.5t-48.5 27.5t-31.5 50t-11.5 76v319q0 7 7 7h4q7 0 7 -7v-319q0 -40 10 -67.5t28 -45t42.5 -25t54.5 -7.5q41 0 73.5 18t55 44.5t34.5 57t12 55.5v289
q0 7 7 7h4q7 0 7 -7v-403q0 -29 9.5 -42t26.5 -13q7 0 7 -7v-4zM165 568q-6 0 -3 5l80 132q3 5 9 5h15q6 0 9 -5l80 -132q3 -5 -3 -5h-10q-7 0 -9 5l-75 116l-74 -116q-3 -5 -9 -5h-10z" />
    <glyph glyph-name="udieresis" unicode="&#xfc;" horiz-adv-x="515" 
d="M469 6q0 -7 -10 -7q-20 0 -35.5 16t-15.5 57v49q-10 -26 -26.5 -49.5t-38.5 -40.5t-49.5 -27t-60.5 -10t-61.5 8.5t-48.5 27.5t-31.5 50t-11.5 76v319q0 7 7 7h4q7 0 7 -7v-319q0 -40 10 -67.5t28 -45t42.5 -25t54.5 -7.5q41 0 73.5 18t55 44.5t34.5 57t12 55.5v289
q0 7 7 7h4q7 0 7 -7v-403q0 -29 9.5 -42t26.5 -13q7 0 7 -7v-4zM190 607q-11 0 -18.5 7.5t-7.5 18.5t7.5 18.5t18.5 7.5t18.5 -7.5t7.5 -18.5t-7.5 -18.5t-18.5 -7.5zM337 607q-11 0 -18.5 7.5t-7.5 18.5t7.5 18.5t18.5 7.5t18.5 -7.5t7.5 -18.5t-7.5 -18.5t-18.5 -7.5z" />
    <glyph glyph-name="yacute" unicode="&#xfd;" horiz-adv-x="473" 
d="M190 -157q-7 -19 -15.5 -35.5t-20.5 -28.5t-28 -19t-39 -7q-16 0 -27 2t-16 4t-4 8l1 6q1 6 6 4q6 -2 16.5 -4.5t23.5 -2.5q35 0 52 19t31 54l56 149l-182 485q-2 5 4 5h8q6 0 8 -5l173 -460l173 460q2 5 8 5h8q6 0 4 -5zM210 568q-6 0 -3 5l80 132q2 5 9 5h15q6 0 3 -5
l-85 -132q-3 -5 -9 -5h-10z" />
    <glyph glyph-name="thorn" unicode="&#xfe;" horiz-adv-x="524" 
d="M102 131q11 -34 33 -60q19 -23 51.5 -41.5t84.5 -18.5q38 0 70 14t55.5 43t37 73.5t13.5 104.5t-14.5 103t-39 70t-56.5 39.5t-67 12.5q-49 0 -81 -21t-52 -46q-23 -29 -35 -66v-207zM91 -244q-7 0 -7 7v956q0 7 7 7h4q7 0 7 -7v-340q13 30 36 54q20 20 52 37.5t80 17.5
q40 0 75.5 -13t62 -42t42 -75t15.5 -112q0 -68 -15.5 -116t-42 -78t-62 -44t-74.5 -14q-51 0 -82.5 15t-51.5 34q-23 21 -35 49v-329q0 -7 -7 -7h-4z" />
    <glyph glyph-name="ydieresis" unicode="&#xff;" horiz-adv-x="473" 
d="M190 -157q-7 -19 -15.5 -35.5t-20.5 -28.5t-28 -19t-39 -7q-16 0 -27 2t-16 4t-4 8l1 6q1 6 6 4q6 -2 16.5 -4.5t23.5 -2.5q35 0 52 19t31 54l56 149l-182 485q-2 5 4 5h8q6 0 8 -5l173 -460l173 460q2 5 8 5h8q6 0 4 -5zM162 607q-11 0 -18.5 7.5t-7.5 18.5t7.5 18.5
t18.5 7.5t18.5 -7.5t7.5 -18.5t-7.5 -18.5t-18.5 -7.5zM309 607q-11 0 -18.5 7.5t-7.5 18.5t7.5 18.5t18.5 7.5t18.5 -7.5t7.5 -18.5t-7.5 -18.5t-18.5 -7.5z" />
    <glyph glyph-name="dotlessi" unicode="&#x131;" horiz-adv-x="189" 
d="M143 6q0 -7 -10 -7q-20 0 -35.5 16t-15.5 57v403q0 7 7 7h4q7 0 7 -7v-403q0 -29 9.5 -42t26.5 -13q7 0 7 -7v-4z" />
    <glyph glyph-name="OE" unicode="&#x152;" horiz-adv-x="1061" 
d="M346 12q49 0 95.5 17.5t83 57t59 104t22.5 158.5t-22.5 158.5t-59 104.5t-83 58t-95.5 18t-95.5 -18t-83 -58t-59 -104.5t-22.5 -158.5t22.5 -158.5t59 -104t83 -57t95.5 -17.5zM626 359h323q7 0 7 -7v-4q0 -7 -7 -7h-323v-323h363q7 0 7 -7v-4q0 -7 -7 -7h-376
q-7 0 -7 7v194q-33 -111 -101 -159t-159 -48q-52 0 -102.5 18t-90 59.5t-63.5 109.5t-24 168t24 168t63.5 110t90 60.5t102.5 18.5q42 0 81.5 -11t74 -36t61 -64t43.5 -94v192q0 7 7 7h376q7 0 7 -7v-4q0 -7 -7 -7h-363v-323z" />
    <glyph glyph-name="oe" unicode="&#x153;" horiz-adv-x="854" 
d="M458 261v-19q0 -71 18.5 -116t46 -70.5t58.5 -35t57 -9.5q30 0 53 8t40 19t28 22t16 18q6 7 10 3l5 -5q3 -3 0 -8q-4 -6 -14.5 -18.5t-29 -25t-45.5 -21.5t-63 -9q-27 0 -56.5 7t-56 26t-47.5 51t-31 82q-18 -85 -69.5 -125.5t-120.5 -40.5q-42 0 -78 15t-63 46t-42 77
t-15 109t15 109t42 77t63 46t78 15q68 0 120 -41t70 -124q8 45 25.5 76.5t41.5 51t54 28.5t64 9q47 0 78.5 -17t50.5 -45.5t27 -67t8 -80.5q0 -12 -1.5 -14.5t-5.5 -2.5h-331zM257 11q35 0 67.5 13.5t57.5 41.5t40 71.5t15 103.5t-15 103.5t-40 71.5t-57.5 41.5t-67.5 13.5
t-67.5 -13.5t-57.5 -41.5t-40 -71.5t-15 -103.5t15 -103.5t40 -71.5t57.5 -41.5t67.5 -13.5zM778 278q0 39 -7 74t-24 61.5t-45 42t-70 15.5q-70 0 -117.5 -45t-55.5 -148h319z" />
    <glyph glyph-name="Scaron" unicode="&#x160;" horiz-adv-x="597" 
d="M514 573q-5 -2 -6 3q-2 4 -13 22t-36 38t-65.5 36t-100.5 16q-54 0 -93 -13.5t-65 -36t-38.5 -51.5t-12.5 -59q0 -49 19.5 -78.5t52 -46.5t73.5 -25.5t84.5 -15.5t84.5 -16.5t73.5 -29t52 -52t19.5 -85.5q0 -40 -16 -74t-46 -58.5t-74 -38.5t-101 -14q-71 0 -119 18.5
t-77.5 41t-42.5 41.5t-14 21q-2 4 2 7l7 6q4 3 6 -1q2 -3 15.5 -21.5t41.5 -39.5t72.5 -38t108.5 -17q102 0 159.5 45t57.5 122q0 49 -19.5 78.5t-52 47t-73.5 26t-84.5 15.5t-84.5 16.5t-73.5 28.5t-52 51t-19.5 85q0 37 14.5 69.5t43.5 57t72 38.5t99 14q67 0 111.5 -18
t71 -40t37.5 -41.5t12 -22.5q1 -4 -2 -6zM221 919q6 0 9 -5l74 -116l75 116q2 5 9 5h10q6 0 3 -5l-80 -132q-3 -5 -9 -5h-15q-6 0 -9 5l-80 132q-3 5 3 5h10z" />
    <glyph glyph-name="scaron" unicode="&#x161;" horiz-adv-x="448" 
d="M363 314q-6 0 -4 7q2 5 3.5 14.5t1.5 22.5q0 21 -7.5 41.5t-25 36t-44.5 25.5t-66 10q-71 0 -106.5 -34t-35.5 -85q0 -45 23.5 -66t58.5 -31.5t76.5 -15t76.5 -15.5t58.5 -34.5t23.5 -70.5q0 -59 -42.5 -92t-123.5 -33q-42 0 -73.5 11t-54 26t-35.5 30.5t-17 23.5
q-3 6 2 9l4 3q6 4 9 -2q5 -8 17 -22t32.5 -28t49 -24t66.5 -10q71 0 109.5 28.5t38.5 79.5q0 31 -13.5 49.5t-36 29t-51 16t-58 10.5t-58 12t-51 20.5t-36 36t-13.5 59.5q0 27 9 51.5t28.5 43t49.5 30t73 11.5q46 0 76.5 -12t49.5 -30.5t27 -42t8 -45.5q0 -12 -1.5 -21.5
t-3.5 -15.5q-2 -7 -8 -7h-6zM152 701q6 0 9 -5l74 -116l75 116q2 5 9 5h10q6 0 3 -5l-80 -132q-3 -5 -9 -5h-15q-6 0 -9 5l-80 132q-3 5 3 5h10z" />
    <glyph glyph-name="Ydieresis" unicode="&#x178;" horiz-adv-x="592" 
d="M293 0q-7 0 -7 7v309l-245 378q-4 6 4 6h8q5 0 10 -6l233 -360l233 360q4 6 10 6h8q8 0 4 -6l-245 -378v-309q0 -7 -7 -7h-6zM222 825q-11 0 -18.5 7.5t-7.5 18.5t7.5 18.5t18.5 7.5t18.5 -7.5t7.5 -18.5t-7.5 -18.5t-18.5 -7.5zM369 825q-11 0 -18.5 7.5t-7.5 18.5
t7.5 18.5t18.5 7.5t18.5 -7.5t7.5 -18.5t-7.5 -18.5t-18.5 -7.5z" />
    <glyph glyph-name="Zcaron" unicode="&#x17d;" horiz-adv-x="569" 
d="M49 0q-7 0 -7 7v5q0 6 5 13l456 657h-454q-7 0 -7 7v4q0 7 7 7h471q7 0 7 -7v-5q0 -7 -5 -13l-456 -657h454q7 0 7 -7v-4q0 -7 -7 -7h-471zM216 919q6 0 9 -5l74 -116l75 116q2 5 9 5h10q6 0 3 -5l-80 -132q-3 -5 -9 -5h-15q-6 0 -9 5l-80 132q-3 5 3 5h10z" />
    <glyph glyph-name="zcaron" unicode="&#x17e;" horiz-adv-x="429" 
d="M49 0q-6 0 -6 6v5q0 6 2 9l318 445h-314q-6 0 -6 6v4q0 7 7 7h328q7 0 7 -7v-4q0 -6 -3 -10l-317 -444h313q7 0 7 -7v-4q0 -6 -6 -6h-330zM147 701q6 0 9 -5l74 -116l75 116q2 5 9 5h10q6 0 3 -5l-80 -132q-3 -5 -9 -5h-15q-6 0 -9 5l-80 132q-3 5 3 5h10z" />
    <glyph glyph-name="florin" unicode="&#x192;" horiz-adv-x="378" 
d="M52 465q-6 0 -6 6v4q0 7 7 7h63v110q0 60 33 97.5t93 37.5q26 0 45.5 -5.5t33 -13.5t21.5 -16.5t12 -13.5q5 -6 1 -10l-5 -5q-3 -3 -8 3q-4 5 -12 12.5t-20 14.5t-29.5 12t-39.5 5q-47 0 -77 -30.5t-30 -87.5v-110h193q7 0 7 -7v-4q0 -6 -6 -6h-194v-577q0 -60 -33 -97.5
t-93 -37.5q-26 0 -45.5 5.5t-33 13.5t-21.5 16.5t-12 13.5q-5 6 -1 10l5 5q3 3 8 -3q4 -5 12 -12.5t20 -14.5t29 -12t40 -5q47 0 77 30.5t30 87.5v577h-64z" />
    <glyph glyph-name="circumflex" unicode="&#x2c6;" horiz-adv-x="306" 
d="M60 568q-6 0 -3 5l80 132q3 5 9 5h15q6 0 9 -5l80 -132q3 -5 -3 -5h-10q-7 0 -9 5l-75 116l-74 -116q-3 -5 -9 -5h-10z" />
    <glyph glyph-name="tilde" unicode="&#x2dc;" horiz-adv-x="354" 
d="M72 590q-5 0 -7 4t-3.5 10.5t-1.5 14.5q0 23 14 38t41 15q18 0 33.5 -6t30 -13.5t30 -13.5t33.5 -6q13 0 22 6t9 20t-4 22q-2 4 4 4h10q6 0 7 -4q1 -2 2.5 -8t1.5 -14q0 -20 -12.5 -33t-39.5 -13q-21 0 -38 6t-31.5 13.5t-28.5 13.5t-29 6t-25 -8.5t-10 -24.5
q0 -8 2 -14.5t4 -10.5q1 -4 -4 -4h-10z" />
    <glyph glyph-name="endash" unicode="&#x2013;" horiz-adv-x="539" 
d="M454 284q7 0 7 -6v-6q0 -6 -7 -6h-369q-7 0 -7 6v6q0 6 7 6h369z" />
    <glyph glyph-name="emdash" unicode="&#x2014;" horiz-adv-x="899" 
d="M814 284q7 0 7 -6v-6q0 -6 -7 -6h-729q-7 0 -7 6v6q0 6 7 6h729z" />
    <glyph glyph-name="quoteleft" unicode="&#x2018;" horiz-adv-x="155" 
d="M105 676q0 -11 -7.5 -18.5t-18.5 -7.5q-14 0 -21.5 10.5t-7.5 25.5q0 20 5.5 33.5t12.5 21.5t14.5 12t11.5 6q4 1 7 -4l4 -7q3 -5 -2 -7q-6 -2 -15 -11t-9 -28q10 0 18 -7.5t8 -18.5z" />
    <glyph glyph-name="quoteright" unicode="&#x2019;" horiz-adv-x="189" 
d="M71 687q0 11 7.5 18.5t18.5 7.5q14 0 21.5 -10.5t7.5 -25.5q0 -20 -5.5 -33.5t-12.5 -22t-14.5 -12.5t-11.5 -5t-7 4l-4 7q-3 5 2 7q6 2 15 11t9 28q-10 0 -18 7.5t-8 18.5z" />
    <glyph glyph-name="quotesinglbase" unicode="&#x201a;" horiz-adv-x="197" 
d="M71 20q0 11 7.5 18.5t18.5 7.5q14 0 21.5 -10.5t7.5 -25.5q0 -20 -5.5 -33.5t-12.5 -22t-14.5 -12.5t-11.5 -5t-7 4l-4 7q-3 5 2 7q6 2 15 11t9 28q-10 0 -18 7.5t-8 18.5z" />
    <glyph glyph-name="quotedblleft" unicode="&#x201c;" horiz-adv-x="240" 
d="M190 676q0 -11 -7.5 -18.5t-18.5 -7.5q-14 0 -21.5 10.5t-7.5 25.5q0 20 5.5 33.5t12.5 21.5t14.5 12t11.5 6q4 1 7 -4l4 -7q3 -5 -2 -7q-6 -2 -15 -11t-9 -28q10 0 18 -7.5t8 -18.5zM105 676q0 -11 -7.5 -18.5t-18.5 -7.5q-14 0 -21.5 10.5t-7.5 25.5q0 20 5.5 33.5
t12.5 21.5t14.5 12t11.5 6q4 1 7 -4l4 -7q3 -5 -2 -7q-6 -2 -15 -11t-9 -28q10 0 18 -7.5t8 -18.5z" />
    <glyph glyph-name="quotedblright" unicode="&#x201d;" horiz-adv-x="275" 
d="M71 686q0 11 7.5 18.5t18.5 7.5q14 0 21.5 -10.5t7.5 -25.5q0 -20 -5.5 -33.5t-12.5 -22t-14.5 -12.5t-11.5 -5t-7 4l-4 7q-3 5 2 7q6 2 15 11t9 28q-10 0 -18 7.5t-8 18.5zM156 686q0 11 7.5 18.5t18.5 7.5q14 0 21.5 -10.5t7.5 -25.5q0 -20 -5.5 -33.5t-12.5 -22
t-14.5 -12.5t-11.5 -5t-7 4l-4 7q-3 5 2 7q6 2 15 11t9 28q-10 0 -18 7.5t-8 18.5z" />
    <glyph glyph-name="quotedblbase" unicode="&#x201e;" horiz-adv-x="277" 
d="M71 20q0 11 7.5 18.5t18.5 7.5q14 0 21.5 -10.5t7.5 -25.5q0 -20 -5.5 -33.5t-12.5 -22t-14.5 -12.5t-11.5 -5t-7 4l-4 7q-3 5 2 7q6 2 15 11t9 28q-10 0 -18 7.5t-8 18.5zM151 20q0 11 7.5 18.5t18.5 7.5q14 0 21.5 -10.5t7.5 -25.5q0 -20 -5.5 -33.5t-12.5 -22
t-14.5 -12.5t-11.5 -5t-7 4l-4 7q-3 5 2 7q6 2 15 11t9 28q-10 0 -18 7.5t-8 18.5z" />
    <glyph glyph-name="dagger" unicode="&#x2020;" horiz-adv-x="370" 
d="M183 120q-4 0 -4 4l-3 399h-126q-4 0 -4 4v9q0 4 4 4h126v154q0 6 6 6h6q6 0 6 -6v-154h126q4 0 4 -4v-9q0 -4 -4 -4h-126l-3 -399q0 -4 -4 -4h-4z" />
    <glyph glyph-name="daggerdbl" unicode="&#x2021;" horiz-adv-x="402" 
d="M193 340l-1 183h-126q-4 0 -4 4v9q0 4 4 4h126v154q0 6 6 6h6q6 0 6 -6v-154h126q4 0 4 -4v-9q0 -4 -4 -4h-126l-1 -183h117q4 0 4 -4v-9q0 -4 -4 -4h-117l-2 -199q0 -4 -4 -4h-4q-4 0 -4 4l-2 199h-117q-4 0 -4 4v9q0 4 4 4h117z" />
    <glyph glyph-name="bullet" unicode="&#x2022;" horiz-adv-x="316" 
d="M214 289q0 -23 -16.5 -39.5t-39.5 -16.5t-39.5 16.5t-16.5 39.5t16.5 39.5t39.5 16.5t39.5 -16.5t16.5 -39.5z" />
    <glyph glyph-name="ellipsis" unicode="&#x2026;" horiz-adv-x="466" 
d="M97 -6q-11 0 -18.5 7.5t-7.5 18.5t7.5 18.5t18.5 7.5t18.5 -7.5t7.5 -18.5t-7.5 -18.5t-18.5 -7.5zM233 -6q-11 0 -18.5 7.5t-7.5 18.5t7.5 18.5t18.5 7.5t18.5 -7.5t7.5 -18.5t-7.5 -18.5t-18.5 -7.5zM369 -6q-11 0 -18.5 7.5t-7.5 18.5t7.5 18.5t18.5 7.5t18.5 -7.5
t7.5 -18.5t-7.5 -18.5t-18.5 -7.5z" />
    <glyph glyph-name="perthousand" unicode="&#x2030;" horiz-adv-x="773" 
d="M143 424q-42 0 -68.5 32t-26.5 107t26 107t69 32t69 -32t26 -107t-26.5 -107t-68.5 -32zM143 439q42 0 59.5 33.5t17.5 90.5t-17.5 90.5t-59.5 33.5t-59.5 -33.5t-17.5 -90.5t17.5 -90.5t59.5 -33.5zM398 -2q-42 0 -68.5 32t-26.5 107t26 107t69 32t69 -32t26 -107
t-26.5 -107t-68.5 -32zM398 13q42 0 59.5 33.5t17.5 90.5t-17.5 90.5t-59.5 33.5t-59.5 -33.5t-17.5 -90.5t17.5 -90.5t59.5 -33.5zM634 -2q-42 0 -68.5 32t-26.5 107t26 107t69 32t69 -32t26 -107t-26.5 -107t-68.5 -32zM634 13q42 0 59.5 33.5t17.5 90.5t-17.5 90.5
t-59.5 33.5t-59.5 -33.5t-17.5 -90.5t17.5 -90.5t59.5 -33.5zM169 6q-2 -6 -8 -6h-7q-6 0 -4 6l208 688q1 6 8 6h7q6 0 4 -6z" />
    <glyph glyph-name="guilsinglleft" unicode="&#x2039;" horiz-adv-x="264" 
d="M55 252q-3 3 -3 9v6q0 6 3 9l119 124q3 3 6 0l6 -7q3 -4 0 -7l-118 -122l118 -122q3 -4 0 -7l-6 -7q-3 -3 -6 0l-119 124v0z" />
    <glyph glyph-name="guilsinglright" unicode="&#x203a;" horiz-adv-x="264" 
d="M90 128q-3 -3 -6 0l-6 7q-4 3 0 7l118 122l-118 122q-4 3 0 7l6 7q3 3 6 0l119 -124q3 -3 3 -9v-6q0 -6 -3 -9z" />
    <glyph glyph-name="Euro" unicode="&#x20ac;" horiz-adv-x="658" 
d="M148 405q6 56 22.5 107t47.5 90t78.5 62t115.5 23q55 0 96.5 -13.5t69.5 -36.5q2 -3 0 -5l-8 -8q-2 -2 -4 -1.5t-3 1.5q-26 20 -63 32.5t-88 12.5q-42 0 -82.5 -12.5t-73.5 -43t-56.5 -81.5t-31.5 -127h288q7 0 7 -8v-4q0 -6 -6 -6h-291q-3 -27 -2.5 -51.5t2.5 -50.5h290
q7 0 7 -8v-4q0 -6 -6 -6h-289q6 -54 24 -99t49 -77.5t74.5 -50t100.5 -17.5q54 0 94 17.5t65 35.5q1 1 3 1t4 -2l6 -7q2 -3 -1 -6q-25 -20 -66.5 -38.5t-104.5 -18.5q-51 0 -96.5 14.5t-81 46t-59.5 81t-31 120.5h-89q-6 0 -6 6v4q0 8 7 8h86q-4 49 0 102h-87q-6 0 -6 6v4
q0 8 7 8h88z" />
    <glyph glyph-name="trademark" unicode="&#x2122;" horiz-adv-x="758" 
d="M334 700q6 0 6 -6v-5q0 -6 -6 -6h-124v-326q0 -7 -7 -7h-4q-7 0 -7 7v326h-124q-6 0 -6 6v5q0 6 6 6h266zM652 683l-119 -269q-3 -7 -13 -7t-13 7l-119 269v-326q0 -7 -7 -7h-4q-7 0 -7 7v336q0 7 7 7h17q5 0 9 -7l117 -268l119 268q3 7 9 7h15q7 0 7 -7v-336q0 -7 -7 -7
h-4q-7 0 -7 7v326z" />
    </font>
</defs>
</svg>
